<?xml version="1.0" standalone="no"?>
<!DOCTYPE svg PUBLIC "-//W3C//DTD SVG 20010904//EN"
 "http://www.w3.org/TR/2001/REC-SVG-20010904/DTD/svg10.dtd">
<svg version="1.0" xmlns="http://www.w3.org/2000/svg"
 width="1280.000000pt" height="1280.000000pt" viewBox="0 0 1280.000000 1280.000000"
 preserveAspectRatio="xMidYMid meet">
<metadata>
Created by potrace 1.15, written by Peter Selinger 2001-2017
</metadata>
<g transform="translate(0.000000,1280.000000) scale(0.100000,-0.100000)"
fill="#df7861" stroke="none">
<path d="M5630 10121 c-21 -6 -25 -13 -23 -42 1 -27 11 -43 48 -76 l47 -43
104 0 104 0 42 -37 c24 -21 45 -39 48 -41 3 -2 -3 -9 -13 -16 -9 -7 -17 -20
-17 -28 0 -26 58 -105 143 -195 l84 -89 5 -84 c7 -106 36 -185 82 -225 30 -26
35 -38 41 -91 l7 -61 -34 -20 c-67 -39 -105 -170 -83 -278 17 -79 38 -123 77
-156 26 -22 32 -35 36 -82 4 -52 2 -59 -27 -92 -113 -129 -119 -309 -14 -412
39 -37 43 -46 43 -88 0 -41 -5 -54 -36 -88 -74 -82 -97 -178 -69 -290 16 -64
16 -74 0 -165 -16 -89 -16 -104 -2 -182 9 -47 19 -95 22 -106 5 -17 1 -23 -22
-31 -72 -26 -129 -109 -153 -225 -6 -32 -13 -58 -15 -58 -2 0 -34 18 -72 39
-93 54 -194 96 -305 127 -51 14 -99 27 -106 30 -9 3 2 24 36 67 75 94 119 167
142 238 19 56 22 81 19 199 l-4 135 70 12 c208 38 357 186 371 369 10 123 -52
233 -141 250 -46 8 -73 1 -117 -33 -48 -37 -68 -73 -68 -122 0 -60 21 -101 75
-149 44 -39 48 -45 39 -70 -6 -17 -25 -35 -54 -49 -38 -20 -60 -23 -155 -23
-97 0 -122 4 -200 30 -61 21 -108 30 -151 30 -55 0 -68 -4 -106 -33 -61 -46
-91 -108 -83 -172 13 -102 82 -204 150 -221 26 -7 120 0 166 11 26 7 27 5 31
-40 5 -65 -12 -114 -65 -188 -78 -109 -146 -157 -296 -209 -61 -21 -215 -48
-272 -48 -26 0 -88 -27 -220 -94 -101 -52 -220 -109 -263 -126 -78 -32 -82
-32 -215 -28 -120 3 -143 7 -192 29 -55 26 -129 91 -129 114 0 6 18 21 39 33
48 27 129 115 137 149 11 41 -5 145 -29 193 -19 39 -63 80 -100 93 -8 3 0 18
21 43 47 57 72 108 88 183 15 74 19 207 5 215 -5 3 -3 24 5 46 8 22 17 71 20
109 6 65 5 70 -17 82 -23 12 -23 12 -4 20 11 4 55 8 97 8 68 1 79 4 92 23 21
30 20 44 -4 68 -18 18 -33 20 -160 20 l-140 0 0 435 0 436 -25 24 c-13 14 -31
25 -40 25 -9 0 0 14 24 35 73 66 86 139 50 269 -12 44 -83 126 -109 126 -23 0
-97 -81 -121 -133 -23 -51 -25 -134 -4 -185 9 -20 32 -54 53 -74 20 -21 31
-38 24 -38 -7 0 -21 -9 -32 -20 -19 -19 -20 -33 -20 -459 l0 -439 -136 -7
c-125 -7 -136 -9 -150 -30 -19 -29 -5 -70 28 -78 13 -4 64 -7 113 -7 90 0 90
-1 58 -16 -31 -15 -33 -20 -33 -68 1 -67 17 -136 38 -159 16 -17 15 -19 -2
-29 -16 -9 -18 -18 -11 -80 12 -127 49 -215 130 -315 l27 -32 -30 -15 c-71
-37 -122 -142 -122 -254 0 -37 11 -121 25 -187 23 -113 25 -139 25 -447 l0
-328 -27 -7 c-16 -4 -89 -7 -163 -7 -102 1 -151 6 -200 20 l-65 19 -3 111 c-2
106 -1 116 33 209 59 163 47 283 -36 362 -45 43 -142 86 -204 91 -45 3 -58 -1
-130 -42 -136 -78 -218 -108 -295 -107 -82 1 -165 29 -204 70 l-28 29 50 49
c58 55 78 110 67 182 -12 86 -58 121 -157 121 -49 0 -54 -3 -99 -49 -38 -39
-49 -59 -55 -96 -10 -71 0 -175 24 -227 25 -57 92 -131 146 -163 56 -32 187
-65 260 -65 99 0 108 -9 122 -115 25 -196 75 -297 219 -440 94 -94 100 -103
100 -141 1 -31 11 -57 43 -106 l42 -64 0 -214 0 -214 -40 -57 c-22 -32 -40
-67 -40 -79 0 -25 23 -72 59 -119 26 -34 26 -36 29 -250 l4 -216 -46 -59 c-25
-32 -46 -65 -46 -73 0 -29 32 -89 68 -125 30 -32 43 -38 78 -38 35 0 49 6 78
35 72 69 75 125 11 206 l-45 57 0 211 0 210 46 67 c43 63 46 71 40 113 -7 53
-28 88 -62 103 l-24 11 0 213 0 213 41 48 c51 59 71 70 104 55 l25 -12 0 -334
c0 -323 -1 -335 -20 -341 -27 -8 -60 -66 -60 -104 0 -80 71 -161 142 -161 91
0 171 146 120 221 -9 15 -28 36 -42 47 l-25 20 -3 317 c-2 235 0 321 9 331 9
11 31 14 83 12 l71 -3 7 -40 c4 -22 7 -92 7 -155 l0 -115 -31 -20 c-40 -25
-63 -81 -54 -129 4 -19 23 -59 44 -88 l37 -53 3 -215 3 -215 -31 -17 c-32 -18
-44 -40 -53 -104 -6 -37 -3 -46 37 -100 l43 -59 7 -216 c6 -196 5 -217 -10
-230 -10 -8 -30 -32 -46 -53 -46 -63 -36 -131 30 -198 30 -32 43 -38 78 -38
36 0 47 5 78 41 20 22 41 51 46 65 24 61 22 69 -24 132 l-46 62 0 218 0 218
35 41 c48 57 57 85 44 138 -10 41 -50 95 -70 95 -5 0 -9 101 -9 226 l0 225 41
61 c36 53 41 65 36 101 -6 45 -33 87 -65 102 -21 9 -22 15 -22 176 0 187 4
199 73 199 33 0 38 -4 69 -57 l33 -58 3 -461 3 -460 -24 -11 c-14 -6 -34 -31
-46 -55 -19 -39 -20 -48 -8 -86 7 -23 31 -61 55 -87 60 -62 97 -63 158 -1 42
42 44 46 44 103 0 54 -4 65 -35 104 l-35 44 0 380 0 380 22 -35 c31 -52 84
-130 118 -174 29 -38 30 -41 30 -156 0 -113 -1 -117 -26 -141 -35 -32 -54 -78
-54 -132 0 -35 7 -51 36 -85 19 -23 40 -56 45 -74 5 -18 9 -117 9 -221 l0
-187 -25 -12 c-34 -15 -54 -49 -61 -102 -9 -61 -1 -83 46 -140 l40 -48 0 -223
c0 -214 -1 -224 -20 -230 -33 -10 -60 -59 -60 -107 1 -51 12 -73 64 -128 55
-59 94 -52 159 28 49 62 51 117 7 184 -17 26 -37 49 -45 52 -17 6 -20 123 -6
256 4 41 4 92 -1 113 -9 42 -4 57 50 127 26 34 32 52 32 90 0 41 -6 56 -45
106 l-45 57 0 200 0 199 40 57 c35 50 40 64 40 112 0 52 -2 57 -45 99 -45 45
-50 60 -39 119 8 40 23 39 95 -5 62 -37 155 -74 188 -74 23 0 91 38 91 51 0 4
9 13 21 19 40 22 219 -79 331 -187 103 -100 136 -199 104 -321 -22 -86 -49
-136 -93 -169 -49 -38 -131 -40 -180 -5 -18 13 -33 29 -33 37 0 14 63 55 85
55 33 0 57 77 38 125 -8 22 -99 65 -139 65 -44 0 -149 -56 -176 -93 -20 -27
-23 -45 -23 -117 0 -105 23 -159 105 -241 60 -61 120 -89 231 -109 88 -16 136
-6 250 52 153 78 290 220 343 353 86 220 51 495 -88 688 -61 85 -100 120 -251
222 -139 93 -240 172 -249 192 -3 7 7 19 24 28 32 17 73 66 89 107 9 23 5 33
-29 80 -66 91 -132 122 -225 105 -120 -21 -176 -84 -183 -208 -6 -101 1 -134
43 -204 19 -31 35 -59 35 -62 0 -16 -93 54 -146 110 -108 114 -157 237 -158
397 -1 94 0 96 47 190 26 52 69 125 97 162 96 131 275 245 450 288 97 24 301
36 370 22 l45 -9 -30 -13 c-208 -88 -296 -153 -347 -258 -32 -64 -33 -71 -33
-187 0 -107 3 -125 24 -167 34 -67 106 -137 170 -166 69 -32 164 -41 189 -19
9 8 34 20 55 27 31 10 37 16 37 40 0 22 -8 33 -42 53 -88 51 -130 121 -132
216 0 48 3 56 29 77 58 46 105 39 105 -18 0 -40 22 -78 69 -121 48 -43 85 -48
148 -17 52 25 62 58 33 106 -38 60 -13 87 110 119 74 19 109 15 163 -21 21
-13 42 -22 47 -19 17 10 11 46 -12 84 l-23 36 50 -37 c62 -45 95 -106 101
-185 4 -47 1 -64 -15 -91 -33 -52 -120 -97 -143 -74 -6 6 -18 39 -27 74 -15
57 -19 63 -44 66 -51 6 -153 -70 -176 -131 -16 -42 -13 -73 10 -120 33 -65 70
-108 116 -137 l42 -27 -22 -20 c-12 -12 -42 -31 -67 -44 -41 -22 -57 -24 -185
-24 l-140 0 -84 38 c-82 36 -144 47 -156 28 -9 -15 33 -131 67 -184 38 -59
101 -114 141 -123 17 -3 62 -9 101 -13 l71 -6 6 -75 c4 -46 14 -91 27 -116 11
-22 76 -96 144 -165 68 -68 135 -140 148 -159 13 -19 17 -29 10 -22 -20 17
-67 15 -74 -4 -3 -9 -6 -28 -6 -42 -1 -85 -87 -174 -212 -221 -19 -7 -28 -18
-28 -33 0 -45 79 -142 125 -154 72 -18 164 55 204 160 23 62 29 184 12 244
-14 46 -5 40 26 -20 24 -46 28 -64 27 -138 -1 -187 -96 -304 -241 -300 -32 1
-71 2 -87 2 -42 1 -55 -22 -45 -77 25 -132 147 -239 272 -238 l57 1 0 -32 c1
-17 19 -83 42 -146 l42 -115 3 -211 4 -211 -26 -17 c-15 -10 -33 -33 -41 -51
-60 -144 83 -289 191 -194 79 70 84 147 15 229 l-37 46 2 104 c4 159 2 150 28
150 42 0 57 -29 58 -111 0 -41 1 -94 1 -119 1 -25 1 -58 0 -75 -1 -16 1 -120
4 -231 l5 -200 -46 -107 c-55 -124 -54 -137 8 -202 56 -58 98 -61 152 -14 51
45 68 83 62 138 -4 36 -13 52 -41 78 -35 33 -36 35 -42 131 -4 54 -3 128 0
166 l8 67 44 -41 c45 -42 77 -50 117 -29 58 32 97 90 97 148 0 49 -27 100 -62
120 l-23 12 3 207 c3 198 5 211 34 302 17 52 32 123 35 156 l6 61 77 6 c42 3
91 12 108 21 42 22 100 95 123 156 23 60 24 89 5 116 -13 19 -20 20 -63 11
-64 -13 -144 10 -199 57 -52 45 -95 138 -102 222 -5 70 25 191 54 215 16 13
17 11 11 -16 -15 -65 -19 -211 -8 -252 13 -46 61 -115 103 -146 16 -12 49 -22
81 -25 47 -4 57 -1 85 23 37 31 72 93 72 127 0 19 -13 29 -67 55 -107 50 -160
110 -178 202 -10 49 -15 56 -37 59 -24 3 -20 9 59 90 165 168 236 286 231 381
l-3 55 87 12 c51 8 107 23 136 38 82 42 152 143 152 220 0 37 -18 86 -31 86
-5 0 -37 -16 -71 -35 -89 -49 -163 -65 -293 -65 -100 0 -115 3 -170 28 -33 16
-66 36 -73 45 -12 14 -9 18 17 31 70 37 141 142 141 210 0 73 -34 122 -113
163 -71 36 -87 30 -108 -40 -9 -32 -23 -64 -29 -72 -33 -40 -118 4 -141 72
-16 51 -7 159 19 210 20 38 86 103 105 103 5 0 -1 -13 -12 -29 -22 -30 -27
-66 -12 -75 5 -3 39 5 76 19 42 16 71 22 79 17 6 -5 31 -12 55 -16 91 -14 127
-57 97 -114 -24 -46 -20 -71 12 -84 15 -7 35 -18 44 -26 30 -25 95 -9 140 35
49 47 60 67 67 118 5 34 10 40 31 43 14 1 40 -7 59 -18 l33 -21 -3 -84 c-4
-75 -7 -87 -35 -122 -16 -21 -54 -54 -82 -73 -41 -27 -52 -40 -52 -61 0 -23 6
-29 38 -39 20 -7 45 -19 55 -28 21 -18 118 -20 171 -2 50 16 133 111 171 195
66 143 70 230 16 339 -52 106 -146 178 -321 247 l-85 33 45 9 c25 4 104 6 175
4 119 -4 138 -8 227 -40 216 -81 349 -159 456 -270 106 -111 148 -230 139
-392 -5 -102 -27 -170 -81 -251 -40 -59 -139 -160 -186 -187 l-30 -18 29 47
c44 68 57 139 41 212 -21 98 -65 168 -122 198 -38 20 -125 17 -173 -5 -22 -10
-61 -41 -87 -69 -43 -46 -48 -56 -48 -99 0 -46 3 -50 57 -100 l58 -51 -20 -22
c-11 -12 -47 -36 -80 -52 -76 -39 -195 -118 -264 -177 -167 -141 -281 -369
-281 -559 0 -156 119 -420 247 -548 85 -85 223 -144 340 -144 64 0 193 40 253
78 50 32 121 119 139 171 27 82 3 216 -47 264 -72 69 -242 61 -282 -13 -21
-39 -6 -120 23 -120 25 0 97 -46 97 -62 0 -29 -48 -58 -97 -58 -89 0 -142 42
-194 153 -28 60 -31 76 -27 131 8 93 47 168 133 251 79 77 244 185 283 185 14
0 43 -17 69 -40 33 -28 55 -40 77 -40 35 0 116 35 179 78 64 44 84 46 91 10
12 -60 7 -84 -25 -114 -62 -58 -76 -137 -34 -195 69 -95 65 -75 65 -300 l0
-206 -26 -24 c-32 -30 -50 -64 -57 -111 -6 -39 8 -71 54 -130 26 -32 27 -36
34 -238 l7 -205 -46 -59 c-61 -79 -63 -123 -10 -188 42 -50 69 -67 104 -67 32
-1 40 5 84 57 31 38 36 51 36 94 0 55 -10 80 -49 121 l-26 28 0 220 -1 220 38
45 c34 41 38 52 38 102 0 43 -5 62 -25 88 -14 18 -34 36 -45 39 -19 6 -20 15
-20 214 l0 208 45 69 c35 52 45 77 45 109 0 46 -27 96 -65 121 -24 16 -25 19
-25 126 l0 111 49 66 c50 68 94 148 116 210 10 31 12 16 18 -134 4 -92 7 -277
7 -410 l0 -242 -25 -11 c-14 -6 -34 -26 -45 -44 -29 -48 -26 -97 9 -145 63
-87 123 -106 181 -57 43 37 60 75 60 135 0 49 -3 55 -45 96 l-45 43 0 439 0
439 30 57 c16 31 30 63 30 70 0 40 105 21 121 -22 5 -13 9 -93 9 -178 0 -145
-1 -154 -20 -160 -11 -3 -31 -21 -45 -39 -30 -40 -36 -125 -9 -147 9 -7 29
-32 45 -55 l29 -43 0 -206 0 -207 -40 -48 c-61 -73 -56 -122 25 -236 18 -26
20 -47 23 -240 l4 -212 -30 -17 c-42 -25 -62 -65 -62 -125 0 -50 3 -56 49
-101 40 -41 54 -49 86 -49 68 0 135 91 135 183 0 19 -14 43 -45 76 l-45 48 0
211 c0 207 0 211 24 239 39 47 56 89 56 139 0 43 -4 51 -45 91 l-45 43 0 195
c0 209 0 208 56 282 29 38 34 53 34 98 0 43 -5 60 -25 84 -14 16 -35 33 -45
36 -19 6 -20 16 -20 161 l0 154 28 11 c41 16 132 6 148 -16 11 -15 14 -83 14
-321 0 -261 -2 -303 -16 -314 -23 -20 -61 -91 -68 -129 -13 -70 62 -161 134
-161 93 0 170 138 120 218 -11 18 -31 37 -43 43 l-24 11 -7 312 c-4 172 -4
321 0 332 18 46 71 46 122 0 l37 -34 5 -228 c5 -226 5 -227 -18 -258 -30 -40
-62 -101 -62 -119 0 -8 19 -43 42 -78 l42 -64 8 -165 c12 -251 9 -271 -38
-315 -31 -29 -34 -38 -34 -86 0 -76 55 -153 116 -165 59 -11 136 53 150 125 9
41 -18 109 -56 146 l-30 29 0 210 0 211 40 59 c34 50 40 67 40 110 0 57 -26
110 -58 120 -18 6 -21 20 -27 163 -9 194 -3 268 24 302 51 64 56 75 56 134
l-1 60 66 52 c72 57 163 170 203 251 32 63 56 154 67 252 9 79 17 92 62 92 15
0 29 4 32 9 3 4 38 11 78 14 138 13 178 29 244 99 85 90 119 184 112 314 -7
124 -40 162 -153 172 -59 4 -68 2 -100 -22 -43 -33 -65 -74 -65 -119 0 -73 12
-101 72 -161 58 -57 59 -59 43 -83 -9 -14 -38 -35 -63 -46 -39 -18 -64 -22
-153 -21 l-107 1 -78 46 c-147 85 -188 100 -264 95 -122 -9 -200 -76 -240
-206 -27 -87 -25 -111 15 -227 32 -91 36 -111 36 -213 1 -70 -3 -117 -10 -126
-6 -7 -37 -22 -69 -32 -60 -20 -230 -25 -323 -10 l-46 7 -6 187 c-13 365 -10
470 18 574 19 73 25 117 25 204 0 142 -18 182 -103 233 l-56 33 49 56 c28 31
59 80 70 109 25 67 44 184 37 238 -2 26 1 49 9 60 9 13 14 48 14 107 0 73 -3
91 -19 107 -19 19 -18 19 11 25 17 3 58 6 92 6 39 0 70 6 84 16 21 14 21 17 7
44 -23 44 -43 50 -168 50 l-115 0 -7 445 c-6 327 -11 447 -20 455 -6 5 -29 14
-51 19 -21 5 -32 9 -23 10 25 2 105 92 118 134 15 46 7 77 -56 200 -43 83 -47
87 -78 87 -78 0 -162 -169 -141 -283 7 -38 76 -123 110 -137 19 -8 18 -9 -6
-9 -16 -1 -37 -10 -48 -21 -19 -19 -20 -33 -20 -458 l0 -439 -97 -6 c-54 -4
-119 -7 -145 -7 -50 0 -68 -16 -68 -59 0 -38 37 -51 140 -51 l95 0 -33 -20
c-25 -15 -31 -25 -28 -42 3 -13 8 -45 11 -73 4 -27 13 -65 21 -84 13 -30 12
-35 -2 -46 -14 -10 -16 -23 -10 -82 14 -140 47 -221 126 -302 23 -23 40 -44
38 -45 -2 -1 -18 -8 -35 -15 -74 -30 -122 -110 -123 -204 0 -32 7 -74 15 -95
22 -50 81 -110 133 -133 23 -10 42 -24 42 -32 0 -18 -57 -71 -98 -91 -64 -33
-182 -56 -280 -56 l-94 0 -192 95 c-233 115 -365 160 -494 170 -169 12 -276
59 -373 163 -97 104 -171 278 -125 295 8 3 30 2 48 -4 48 -13 125 -11 157 5
124 64 173 273 84 359 -71 68 -169 75 -313 22 -147 -54 -290 -46 -366 19 l-38
33 51 59 c65 76 73 93 73 150 0 67 -48 131 -117 154 -50 17 -104 -2 -158 -57
l-47 -47 4 -120 c3 -93 8 -129 22 -156 29 -55 85 -119 128 -146 37 -24 231
-94 259 -94 36 -1 39 -14 24 -87 -31 -149 11 -289 138 -455 37 -49 67 -92 67
-96 0 -5 -26 -14 -57 -21 -85 -19 -246 -85 -343 -141 l-85 -49 -12 66 c-23
118 -82 202 -155 218 -33 8 -33 9 -13 65 20 55 20 240 1 303 -12 40 -12 54 0
94 35 116 7 239 -70 312 -48 46 -49 90 -5 151 60 82 84 148 83 225 -1 97 -35
181 -88 215 l-38 25 4 64 c3 45 9 66 19 70 27 8 67 61 83 108 9 27 16 79 16
122 0 87 -20 139 -77 209 -34 41 -35 47 -30 98 4 42 12 61 35 83 36 36 59 115
68 233 l7 87 59 52 c32 28 81 81 109 117 51 67 62 109 34 132 -12 10 -8 18 27
51 41 39 42 39 123 39 46 0 97 3 114 6 44 9 141 104 141 139 l0 25 -757 -1
c-417 -1 -769 -4 -783 -8z m805 -712 c4 -5 4 -21 1 -35 -6 -23 -11 -25 -54
-22 -45 3 -47 4 -50 36 l-3 32 50 0 c27 0 53 -5 56 -11z m5 -478 c12 -24 13
-141 1 -160 -5 -8 -16 -16 -24 -17 -8 -1 -28 -5 -44 -8 -29 -7 -31 -5 -42 38
-6 25 -11 66 -11 91 0 42 3 47 33 60 45 20 75 18 87 -4z m-4 -609 c6 -4 14
-31 18 -60 10 -74 -12 -109 -66 -110 -36 -1 -41 3 -54 33 -16 40 -18 83 -4
119 8 22 15 26 52 26 24 0 48 -4 54 -8z m8 -608 c15 -14 23 -94 10 -94 -3 0
-19 10 -36 21 l-30 22 -28 -22 c-37 -27 -40 -26 -40 5 0 28 16 65 34 76 19 13
74 8 90 -8z m49 -898 c38 -15 87 -69 87 -95 0 -9 -21 -46 -47 -81 -26 -36 -66
-96 -89 -133 l-42 -68 -91 127 c-61 85 -91 136 -91 154 0 34 29 72 72 93 41
21 156 22 201 3z m2457 -253 c0 -76 3 -189 7 -250 l6 -113 -38 0 c-44 0 -102
30 -129 68 -26 34 -44 204 -30 283 8 51 13 56 72 101 35 27 74 48 88 48 l24 0
0 -137z m-4985 54 l60 -32 0 -175 0 -175 -55 -27 c-30 -14 -67 -29 -82 -32
l-28 -6 0 240 0 240 23 0 c12 0 49 -15 82 -33z m4700 -70 c3 -12 5 -51 3 -86
l-3 -63 -52 75 c-29 42 -53 80 -53 86 0 6 21 11 50 11 43 0 50 -3 55 -23z
m-4426 -6 c11 -7 3 -24 -40 -80 l-54 -71 -3 60 c-4 76 9 100 51 100 18 0 38
-4 46 -9z m5418 -207 c3 -10 -4 -26 -21 -42 l-26 -27 0 36 c0 20 3 39 7 42 12
12 34 7 40 -9z m-6473 -40 c3 -9 6 -28 6 -42 l-1 -27 -30 33 c-16 18 -27 37
-24 42 10 16 42 11 49 -6z m3291 -624 c25 -22 66 -53 90 -70 25 -17 45 -34 44
-38 0 -4 -29 -29 -64 -56 -56 -44 -82 -71 -128 -139 -12 -17 -15 -15 -44 25
-17 24 -61 75 -97 115 l-66 71 37 23 c20 13 59 42 85 66 29 25 59 43 73 43 13
0 44 -17 70 -40z m79 -1951 c3 -17 6 -79 6 -138 l-1 -106 -44 -48 -45 -49 0
163 c0 153 1 164 22 186 31 33 54 30 62 -8z"/>
<path d="M9747 9668 c-79 -85 -123 -224 -98 -308 23 -76 124 -170 182 -170 34
0 94 59 122 120 16 33 22 65 22 120 0 65 -4 82 -30 128 -28 52 -126 152 -147
152 -6 0 -29 -19 -51 -42z"/>
<path d="M2911 9635 c-44 -40 -104 -147 -122 -218 -9 -38 -9 -57 1 -90 17 -58
85 -146 126 -163 31 -13 39 -13 69 2 39 18 99 87 120 138 38 90 -1 226 -93
329 -19 20 -41 37 -48 37 -8 0 -31 -16 -53 -35z"/>
<path d="M9711 9146 c-8 -10 -11 -165 -11 -569 l0 -555 -22 -6 c-13 -3 -93 -6
-179 -6 -173 0 -180 -2 -182 -62 l-2 -33 193 -3 c155 -2 197 -5 209 -17 13
-13 6 -15 -61 -15 -96 0 -130 -14 -121 -49 4 -15 10 -75 14 -135 4 -77 10
-111 19 -114 10 -3 9 -8 -4 -23 -15 -17 -15 -24 1 -111 19 -105 58 -234 87
-291 28 -57 95 -125 129 -132 69 -15 141 33 203 138 60 101 112 346 83 390
-12 18 -12 26 -2 42 7 12 15 71 18 141 l6 121 -25 12 c-14 6 -52 11 -85 11
-54 0 -59 2 -45 15 12 12 46 15 175 15 207 0 232 10 196 80 l-16 30 -169 0
-170 0 -1 268 c-2 828 -2 842 -23 858 -27 19 -199 20 -215 0z"/>
<path d="M2854 9106 c-18 -14 -19 -29 -15 -575 l4 -561 -170 0 c-185 0 -188
-1 -199 -57 -4 -20 -1 -34 7 -39 8 -5 94 -9 191 -9 128 0 180 -3 189 -12 10
-11 0 -13 -54 -13 -80 0 -133 -21 -121 -48 4 -9 10 -65 13 -123 5 -81 10 -112
23 -126 12 -13 14 -23 8 -33 -26 -41 2 -236 48 -334 31 -66 89 -141 131 -168
32 -22 82 -23 120 -3 40 20 118 110 148 168 48 96 73 318 38 347 -12 10 -13
16 -1 39 16 30 36 150 36 214 0 56 -21 67 -128 67 -70 1 -75 2 -58 15 16 12
57 15 197 15 156 0 179 2 199 18 19 16 21 22 11 40 -27 50 -50 56 -214 49 -86
-3 -159 -2 -167 3 -13 8 -16 90 -18 560 -4 548 -4 550 -25 565 -29 20 -166 21
-193 1z"/>
<path d="M7944 8985 c-44 -44 -93 -188 -80 -238 3 -14 29 -50 57 -81 42 -46
47 -56 31 -56 -55 0 -52 21 -52 -416 l0 -404 -123 0 c-136 0 -147 -4 -147 -57
0 -41 25 -53 112 -53 52 0 59 -2 48 -15 -14 -17 3 -142 25 -185 10 -20 10 -28
-1 -45 -18 -28 -3 -157 26 -222 39 -88 116 -163 168 -163 28 0 90 66 118 126
27 57 64 193 64 235 0 15 -7 29 -15 33 -14 5 -14 9 -2 33 8 16 20 61 27 102
12 73 12 75 -10 93 -22 18 -21 18 58 18 62 0 85 4 102 18 l22 18 -27 32 -27
32 -108 0 -109 0 -6 53 c-8 63 -8 74 -1 187 2 47 0 104 -5 128 -6 28 -6 57 2
86 7 30 8 55 1 80 -6 20 -7 38 -3 40 4 3 8 51 9 106 2 106 -12 150 -46 150
-12 0 -9 7 10 28 15 15 32 40 37 55 16 40 14 142 -3 182 -17 41 -93 125 -113
125 -8 0 -25 -11 -39 -25z"/>
<path d="M4735 8945 c-54 -53 -77 -102 -77 -166 0 -50 29 -117 67 -155 22 -22
22 -24 5 -24 -38 0 -43 -50 -39 -449 l4 -376 -110 -3 c-98 -2 -112 -5 -142
-28 -29 -22 -31 -27 -21 -49 11 -26 38 -32 113 -27 17 1 41 -1 53 -4 19 -4 21
-8 12 -19 -9 -11 -9 -36 0 -107 7 -51 11 -124 11 -163 -2 -117 24 -193 97
-280 60 -72 102 -82 155 -36 69 61 116 194 117 328 0 34 5 65 10 68 17 10 13
181 -5 199 -8 8 -15 17 -15 20 0 3 41 4 90 1 l90 -5 0 38 c0 21 -5 43 -12 50
-8 8 -52 12 -134 12 l-121 0 -7 61 c-3 34 -6 211 -6 393 0 284 -2 335 -16 354
-8 12 -22 22 -31 22 -10 0 -2 15 26 45 69 74 72 102 30 232 -23 71 -52 113
-79 113 -10 0 -39 -20 -65 -45z"/>
<path d="M7616 6754 c-10 -10 -16 -33 -16 -64 0 -51 16 -70 57 -70 36 1 91 67
77 93 -31 54 -86 74 -118 41z"/>
<path d="M5107 6753 c-35 -9 -50 -98 -21 -127 36 -37 124 1 124 53 0 42 -60
85 -103 74z"/>
<path d="M7800 6643 c-39 -14 -60 -46 -60 -93 0 -39 5 -51 33 -78 42 -41 65
-40 105 1 27 27 32 41 32 79 0 39 -5 50 -31 72 -30 25 -49 30 -79 19z"/>
<path d="M4909 6601 c-39 -40 -38 -77 4 -133 43 -56 68 -59 112 -15 47 47 49
100 6 146 -39 41 -82 42 -122 2z"/>
<path d="M4741 6405 c-59 -34 -70 -51 -71 -108 0 -94 59 -172 131 -172 33 0
46 7 86 47 41 42 47 52 50 100 5 62 -17 106 -69 138 -44 26 -74 25 -127 -5z"/>
<path d="M7894 6396 c-37 -37 -43 -76 -24 -148 15 -53 80 -108 127 -108 31 0
44 8 85 50 26 27 50 61 54 76 9 37 -13 102 -46 136 -26 25 -35 28 -95 28 -63
0 -69 -2 -101 -34z"/>
</g>
</svg>
