<!DOCTYPE svg PUBLIC "-//W3C//DTD SVG 1.1//EN" "http://www.w3.org/Graphics/SVG/1.1/DTD/svg11.dtd">
<!-- Uploaded to: SVG Repo, www.svgrepo.com, Transformed by: SVG Repo Mixer Tools -->
<svg fill="#beebe9" width="64px" height="64px" viewBox="0 0 24.00 24.00" xmlns="http://www.w3.org/2000/svg" stroke="#beebe9" stroke-width="0.00024000000000000003">
<g id="SVGRepo_bgCarrier" stroke-width="0"/>
<g id="SVGRepo_tracerCarrier" stroke-linecap="round" stroke-linejoin="round" stroke="#CCCCCC" stroke-width="1.44"/>
<g id="SVGRepo_iconCarrier">
<path d="M4,21a1,1,0,0,0,1,1H19a1,1,0,0,0,1-1V3a1,1,0,0,0-1-1H5A1,1,0,0,0,4,3ZM12,7.5a2,2,0,1,1-2,2A2,2,0,0,1,12,7.5ZM8.211,16.215a4,4,0,0,1,7.578,0A.993.993,0,0,1,14.83,17.5H9.18A1,1,0,0,1,8.211,16.215Z"/>
</g>
</svg>