<svg xmlns="http://www.w3.org/2000/svg" xmlns:xlink="http://www.w3.org/1999/xlink" version="1.1" x="0px" y="0px" viewBox="0 0 512 640" style="enable-background:new 0 0 512 512;" xml:space="preserve"><g fill="#fc85ae"><path d="M309.05,61.14c0.34,1.65,1.8,2.79,3.42,2.79c0.24,0,0.48-0.02,0.72-0.07c1.89-0.39,3.11-2.25,2.71-4.14l-5.31-25.49   c-0.4-1.89-2.25-3.11-4.14-2.71c-1.89,0.39-3.11,2.25-2.71,4.14L309.05,61.14z"/><path d="M388.82,85.29c0.98,0,1.96-0.41,2.65-1.22l16.98-19.74c1.26-1.47,1.09-3.68-0.37-4.94c-1.46-1.26-3.67-1.09-4.94,0.37   l-16.98,19.74c-1.26,1.47-1.09,3.68,0.37,4.94C387.2,85.02,388.01,85.29,388.82,85.29z"/><path d="M406.53,428.92c-1.28-1.45-3.49-1.59-4.94-0.31c-1.45,1.28-1.59,3.49-0.31,4.94l17.24,19.52c0.69,0.78,1.66,1.18,2.62,1.18   c0.82,0,1.65-0.29,2.31-0.88c1.45-1.28,1.59-3.49,0.31-4.94L406.53,428.92z"/><path d="M327.67,447.04c-1.9-0.37-3.73,0.87-4.1,2.77l-4.98,25.56c-0.37,1.9,0.87,3.73,2.77,4.1c0.23,0.04,0.45,0.06,0.67,0.06   c1.64,0,3.11-1.16,3.43-2.83l4.98-25.56C330.81,449.25,329.57,447.41,327.67,447.04z"/><path d="M462.16,130.37H146.97c-6.58,0-11.94,5.36-11.94,11.94v228.38c0,6.58,5.36,11.94,11.94,11.94h315.19   c6.58,0,11.94-5.36,11.94-11.94V142.31C474.1,135.72,468.74,130.37,462.16,130.37z M142.03,183.87h88.81   c4.59,0,8.32-3.73,8.32-8.32V154.3c0-1.93-1.57-3.5-3.5-3.5s-3.5,1.57-3.5,3.5v21.24c0,0.73-0.59,1.32-1.32,1.32h-88.81v-34.56   c0-2.72,2.22-4.94,4.94-4.94h110.59v56.35c0,4.72-3.84,8.56-8.56,8.56H142.03V183.87z M257.57,375.62h-18.4v-39.17   c0-4.59-3.73-8.32-8.32-8.32h-69.93c-1.93,0-3.5,1.57-3.5,3.5s1.57,3.5,3.5,3.5h69.93c0.73,0,1.32,0.59,1.32,1.32v39.17h-85.19   c-2.72,0-4.94-2.22-4.94-4.94v-60.96h106.98c4.72,0,8.56,3.84,8.56,8.56V375.62z M467.1,370.69c0,2.72-2.22,4.94-4.94,4.94h-54.07   l6.71-59.98h5.18c2.61,0,4.72-2.11,4.72-4.72v-9.4c0-2.61-2.11-4.72-4.72-4.72H308.97c-2.61,0-4.72,2.11-4.72,4.72v9.4   c0,2.61,2.11,4.72,4.72,4.72h5.18l6.71,59.98h-56.29v-57.34c0-8.58-6.98-15.56-15.56-15.56H142.03v-93.46h106.98   c8.58,0,15.56-6.98,15.56-15.56v-56.35h197.59c2.72,0,4.94,2.22,4.94,4.94V370.69z"/><path d="M470.68,104.97H264.57V45.02c0-8.58-6.98-15.56-15.56-15.56H28.06c-8.58,0-15.56,6.98-15.56,15.56v148.7   c0,8.58,6.98,15.56,15.56,15.56h62.27c1.93,0,3.5-1.57,3.5-3.5s-1.57-3.5-3.5-3.5H28.06c-4.72,0-8.56-3.84-8.56-8.56V45.02   c0-4.72,3.84-8.56,8.56-8.56h220.95c4.72,0,8.56,3.84,8.56,8.56v59.95h-18.41c0-0.03,0.01-0.07,0.01-0.1V63.19   c0-4.59-3.73-8.32-8.32-8.32H46.22c-4.59,0-8.32,3.73-8.32,8.32v112.36c0,4.59,3.73,8.32,8.32,8.32h63.41v118.86H28.06   c-8.58,0-15.56,6.98-15.56,15.56v148.7c0,8.58,6.98,15.56,15.56,15.56h220.95c8.58,0,15.56-6.98,15.56-15.56v-58.96h206.11   c15.89,0,28.82-12.93,28.82-28.82V133.79C499.5,117.9,486.57,104.97,470.68,104.97z M99.96,176.87v-33.12   c0-9.79-2.93-19.36-8.41-27.47v0c-3.83-5.68-5.07-12.72-3.39-19.36l1.51-5.97c0.71-2.81-1.41-5.53-4.31-5.53H66.96   c-2.9,0-5.02,2.73-4.31,5.53l1.51,5.97c1.68,6.64,0.45,13.69-3.39,19.36v0c-5.48,8.11-8.41,17.68-8.41,27.47v33.12h-6.15   c-0.73,0-1.32-0.59-1.32-1.32V63.19c0-0.73,0.59-1.32,1.32-1.32h184.62c0.73,0,1.32,0.59,1.32,1.32v41.68   c0,0.04,0.01,0.07,0.01,0.1h-93.73c-15.89,0-28.82,12.93-28.82,28.82v43.08H99.96z M138.45,408.03h93.71v40.79   c0,0.73-0.59,1.32-1.32,1.32H90.19l-2.02-8c-1.68-6.64-0.45-13.69,3.39-19.36v0c5.48-8.11,8.41-17.68,8.41-27.47v-22.21   c0-3.87-3.13-7-7-7H59.37c-3.87,0-7,3.13-7,7v22.21c0,9.79,2.93,19.36,8.41,27.47c3.83,5.68,5.07,12.72,3.39,19.36l-2.02,8H46.22   c-0.73,0-1.32-0.59-1.32-1.32V336.45c0-0.73,0.59-1.32,1.32-1.32h63.41v44.08C109.63,395.1,122.56,408.03,138.45,408.03z    M257.57,466.98c0,4.72-3.84,8.56-8.56,8.56H28.06c-4.72,0-8.56-3.84-8.56-8.56v-148.7c0-4.72,3.84-8.56,8.56-8.56h81.58v18.4   H46.22c-4.59,0-8.32,3.73-8.32,8.32v112.36c0,4.59,3.73,8.32,8.32,8.32h184.62c4.59,0,8.32-3.73,8.32-8.32v-40.79h18.4V466.98z    M492.5,379.21c0,12.03-9.79,21.82-21.82,21.82H138.45c-12.03,0-21.82-9.79-21.82-21.82V133.79c0-12.03,9.79-21.82,21.82-21.82   h332.23c12.03,0,21.82,9.79,21.82,21.82V379.21z"/><path d="M441.25,234.82c-6.74-0.53-14.33,0.83-22.07,3.52c2.51-9.45,3.06-18,3.13-22.79c0.04-2.39-1.36-4.49-3.57-5.34   c-2.13-0.82-4.48-0.25-6,1.46c-4.68,5.3-9.9,9.57-15.4,13.21c0.79-10.95,3.29-23.02,11.55-34.37c1.23-1.69,1.24-3.83,0.04-5.46   c-1.38-1.88-4.07-2.6-6.52-1.77c-7.28,2.47-16.32,7.47-24.41,13.56c-3.53-8.12-7.05-18.33-7.64-29.99   c-0.12-2.29-1.61-4.23-3.8-4.93c-2.19-0.7-4.54,0.01-5.97,1.81c-8.61,10.87-13.78,24.06-15.12,38.45   c-4.49-3.39-8.73-7.64-12.62-13.7c-1.13-1.75-3.12-2.54-5.08-2.02c-2.25,0.61-3.9,2.84-4.01,5.44c-0.18,4.11-0.08,8.23,0.28,12.3   c-5.19-2.48-10.55-4.23-15.92-5.05c-2.36-0.36-4.65,0.68-5.85,2.65c-1.13,1.87-1.02,4.13,0.28,5.92   c8.8,12.02,12.2,23.86,14.83,36.16c-3.38-2.66-6.67-5.69-9.86-9.3c-1.51-1.71-3.87-2.29-6-1.46c-2.21,0.85-3.61,2.95-3.57,5.34   c0.25,16.52,6.33,33.21,17.1,46.99c1.19,1.52,3.39,1.79,4.91,0.6c1.52-1.19,1.79-3.39,0.6-4.91c-8.98-11.5-14.38-25.16-15.43-38.86   c12.05,12.32,25.42,18.19,38.38,23.87c11.54,5.07,23.47,10.3,34.74,20.19c0.67,0.58,1.49,0.87,2.31,0.87c0.97,0,1.94-0.4,2.63-1.19   c1.28-1.45,1.13-3.66-0.32-4.94c-2.09-1.84-4.19-3.51-6.3-5.06c15.64-19.5,43.21-33.42,60.33-34.29   c-12.98,11.34-19.6,24.35-26.02,36.97c-0.58,1.14-1.16,2.27-1.74,3.41c-0.88,1.72-0.2,3.83,1.52,4.71   c0.51,0.26,1.06,0.39,1.59,0.39c1.27,0,2.5-0.7,3.12-1.9c0.59-1.15,1.17-2.29,1.75-3.44c6.88-13.54,13.39-26.33,27.33-37.32   c1.76-1.38,2.47-3.65,1.83-5.77C445.61,236.57,443.63,235,441.25,234.82z M378.62,205.24c0.14-0.1,0.27-0.21,0.4-0.33   c6.46-5.3,14-9.99,20.6-13c-7.44,12.78-9.11,25.83-9.52,37.34c-1.04,0.58-2.08,1.13-3.13,1.68c-5.98-7.18-12.22-11.73-18.47-15.42   C371.13,212.05,374.65,208.53,378.62,205.24z M363.68,171.3c1.24,11.87,5.06,22.06,8.68,30.1c-3.93,3.43-7.41,7.07-10.04,10.7   c-0.8-0.43-1.61-0.85-2.41-1.27c-2.62-1.38-5.2-2.74-7.72-4.22C352.73,193.52,356.67,181.42,363.68,171.3z M356.65,217.02   c8.37,4.4,16.32,8.59,23.83,17.13c-3.34,1.58-6.69,3.08-10.02,4.56c-2.57,1.15-5.21,2.32-7.79,3.52   c-7.28-13.61-18.42-25.84-31.09-33.86c-0.53-3.59-0.85-7.23-0.91-10.89C338.71,207.59,347.81,212.37,356.65,217.02z M346.33,259.76   c-7.1-3.12-14-6.15-20.62-10.14c-2.81-13.98-5.71-28.4-15.33-42.91c25.35,5.91,50.19,34.67,53.7,61.45   C358.13,264.95,352.18,262.33,346.33,259.76z M410.85,241.7c-15.2,6.96-30.06,18.22-39.42,29.6c-0.45-7.58-2.48-15.31-5.7-22.77   c2.47-1.14,4.98-2.26,7.6-3.43c14.47-6.45,29.4-13.1,41.85-25.77C414.81,225.02,413.77,233.23,410.85,241.7z"/></g></svg>