<svg xmlns="http://www.w3.org/2000/svg" xmlns:xlink="http://www.w3.org/1999/xlink" version="1.1" x="0px" y="0px" viewBox="0 0 100 125" style="enable-background:new 0 0 100 100;" xml:space="preserve"><g><g fill="#df7861"><path d="M70.3,26.4c0.3-0.7,0.5-1.4,0.5-2.2c0.1-1,0.1-2.1-0.1-3c-1.2-6-6.3-10.5-12.4-11.1C58.2,10,58,10,57.9,10h-1.1H43.2h-1.1    c-0.1,0-0.3,0-0.4,0.1c-6.1,0.6-11.2,5.1-12.4,11.1c-0.2,1-0.2,2-0.1,3c0.1,0.7,0.3,1.5,0.5,2.2l2.4,5.9c0.9,2.2,1.3,4.5,1.3,6.9    l-0.1,4.3c0,0.9,0.1,1.8,0.4,2.6c1.5,4.3,5.3,7.3,9.8,7.8c0.1,0.1,0.3,0.1,0.4,0.1H45h10h1.1c0.2,0,0.3,0,0.4-0.1    c4.5-0.6,8.3-3.6,9.8-7.8c0.3-0.8,0.4-1.7,0.4-2.6l-0.1-4.3c0-2.4,0.4-4.7,1.3-6.9L70.3,26.4z M66.1,31.5c-1,2.5-1.5,5-1.4,7.7    l0.1,4.3c0,0.7-0.1,1.4-0.3,1.9C63.1,49.4,59.3,52,55,52H45c-4.3,0-8-2.6-9.4-6.6c-0.2-0.6-0.3-1.2-0.3-1.9l0.1-4.3    c0-2.6-0.4-5.2-1.4-7.7l-2.4-5.9c-0.2-0.5-0.4-1.1-0.4-1.6c-0.1-0.9-0.1-1.7,0.1-2.4C32.4,16,37.4,12,43.2,12h13.6    c5.8,0,10.8,4,11.9,9.6c0.2,0.8,0.2,1.6,0.1,2.4c-0.1,0.5-0.2,1.1-0.4,1.6L66.1,31.5z"/><path d="M31,65h38v-3.1c0-3.8-3.1-6.9-6.9-6.9H37.9c-3.8,0-6.9,3.1-6.9,6.9V65z M33,61.9c0-2.7,2.2-4.9,4.9-4.9h24.1    c2.7,0,4.9,2.2,4.9,4.9V63H33V61.9z"/><path d="M76,82c2-2.5,2.1-9,2.1-9.7c0-0.2-0.1-0.4-0.2-0.5V66H22v5.8c-0.1,0.2-0.2,0.3-0.2,0.5c0,0.7,0.1,7.2,2.1,9.7    c0.1,0.2,0.2,0.3,0.3,0.4c1,2.4,1.7,5.7,0.4,7c-0.5,0.5-0.8,1.1-1,1.9c-0.3,1.1-0.2,2,0.3,2.7c0.2,0.4,0.7,0.8,1.6,0.9    c0.1,0,0.2,0,0.3,0c1,0,2-0.6,2.7-1.5c1.3-1.8,3.2-5.7,2.5-10.8c-0.3-1.9-0.6-3.3-0.8-4.5c-0.4-2.1-0.7-3.4-0.6-5.1H37v9.4    c0,1.7,1.3,3,3,3s3-1.3,3-3V73h15v9.4c0,1.7,1.3,3,3,3s3-1.3,3-3V73h6.4c0.1,1.7-0.2,3.1-0.6,5.1c-0.2,1.2-0.5,2.6-0.8,4.5    c-0.8,5.1,1.2,9,2.5,10.8c0.7,1,1.7,1.5,2.7,1.5c0.1,0,0.2,0,0.3,0c0.9-0.1,1.3-0.5,1.6-0.9c0.5-0.6,0.5-1.5,0.3-2.7    c-0.2-0.8-0.5-1.4-1-1.9c-1.3-1.3-0.6-4.6,0.4-7C75.8,82.3,75.9,82.2,76,82z M24,68h52v3H24V68z M28.2,78.5    c0.2,1.2,0.5,2.6,0.8,4.4c0.7,4.4-1.1,7.8-2.1,9.4c-0.3,0.4-0.7,0.7-1.1,0.7c-0.1,0-0.2,0-0.2,0c0-0.1-0.1-0.4,0-1.1    c0.1-0.4,0.3-0.7,0.5-0.9c2.4-2.4,0.8-7.2,0-9.2c-0.1-0.3-0.3-0.6-0.6-0.9c-1.1-1.4-1.6-5.2-1.7-7.8h3.7    C27.5,74.9,27.8,76.4,28.2,78.5z M41,82.4c0,0.6-0.4,1-1,1s-1-0.4-1-1V73h2V82.4z M62,82.4c0,0.6-0.4,1-1,1s-1-0.4-1-1V73h2V82.4z     M73.9,90.9c0.2,0.2,0.4,0.5,0.5,0.9c0.2,0.7,0.1,1,0,1.1c0,0-0.1,0-0.2,0c-0.4,0-0.8-0.2-1.1-0.7c-1.1-1.6-2.8-5-2.1-9.4    c0.3-1.8,0.5-3.2,0.8-4.4c0.4-2.1,0.7-3.6,0.6-5.5h3.7c-0.1,2.6-0.6,6.4-1.7,7.8c-0.2,0.3-0.4,0.6-0.6,0.9    C73.1,83.7,71.5,88.5,73.9,90.9z"/><path d="M25.9,40c-1.6,0.1-2.9,1.4-2.9,3v19c0,1.7,1.3,3,3,3s3-1.3,3-3V43c0-0.4-0.1-0.7-0.2-1H31c0.5,0,0.9-0.4,1-0.9    c0.1-0.1,0.1-0.3,0.1-0.4c0.1-3.1-0.5-6.2-1.7-9.1l-2.8-7c-0.3-0.7-0.4-1.3-0.5-2c-0.1-1-0.1-2,0.1-3C28.5,12.9,34.6,8,41.7,8    h16.6c7.1,0,13.2,4.9,14.5,11.6c0.2,0.9,0.2,1.9,0.1,3c-0.1,0.7-0.2,1.3-0.5,2l-2.8,7c-1.2,2.9-1.8,6-1.7,9.1c0,0.2,0,0.3,0.1,0.4    c0,0,0,0,0,0c0,0.6,0.4,1,1,1h3.1C72.1,42.4,72,42.7,72,43v19c0,1.7,1.3,3,3,3s3-1.3,3-3V43c0-1.7-1.3-3-3-3    c-0.3,0-0.6,0.1-0.9,0.1c0,0-0.1,0-0.1,0h-4.1c0-2.7,0.5-5.3,1.5-7.8l2.8-7c0.3-0.8,0.6-1.7,0.6-2.5c0.1-1.2,0.1-2.4-0.2-3.6    C73.3,12,67.1,6.6,59.6,6.1C59.5,6,59.4,6,59.3,6h-1H41.7h-1.1c-0.1,0-0.2,0-0.3,0.1C32.9,6.7,26.7,12,25.2,19.2    c-0.2,1.1-0.3,2.3-0.2,3.6c0.1,0.9,0.3,1.7,0.6,2.5l2.8,7c1,2.5,1.5,5,1.5,7.7L25.9,40C26,40,25.9,40,25.9,40z M76,43v19    c0,0.6-0.4,1-1,1s-1-0.4-1-1V43c0-0.6,0.4-1,1-1S76,42.4,76,43z M27,62c0,0.6-0.4,1-1,1s-1-0.4-1-1V43c0-0.6,0.4-1,1-1s1,0.4,1,1    V62z"/></g></g></svg>