<svg xmlns="http://www.w3.org/2000/svg" xmlns:xlink="http://www.w3.org/1999/xlink" version="1.1" x="0px" y="0px" viewBox="0 0 128 160" style="enable-background:new 0 0 128 128;" xml:space="preserve"><g fill="#df7861"><path d="M44,56c2.206,0,4-1.794,4-4s-1.794-4-4-4s-4,1.794-4,4S41.794,56,44,56z M44,50c1.103,0,2,0.897,2,2s-0.897,2-2,2   s-2-0.897-2-2S42.897,50,44,50z"/><path d="M84,56c2.206,0,4-1.794,4-4s-1.794-4-4-4s-4,1.794-4,4S81.794,56,84,56z M84,50c1.103,0,2,0.897,2,2s-0.897,2-2,2   s-2-0.897-2-2S82.897,50,84,50z"/><path d="M44,20c2.206,0,4-1.794,4-4s-1.794-4-4-4s-4,1.794-4,4S41.794,20,44,20z M44,14c1.103,0,2,0.897,2,2s-0.897,2-2,2   s-2-0.897-2-2S42.897,14,44,14z"/><path d="M84,20c2.206,0,4-1.794,4-4s-1.794-4-4-4s-4,1.794-4,4S81.794,20,84,20z M84,14c1.103,0,2,0.897,2,2s-0.897,2-2,2   s-2-0.897-2-2S82.897,14,84,14z"/><path d="M64,38c2.206,0,4-1.794,4-4s-1.794-4-4-4s-4,1.794-4,4S61.794,38,64,38z M64,32c1.103,0,2,0.897,2,2s-0.897,2-2,2   s-2-0.897-2-2S62.897,32,64,32z"/><path d="M24,38c2.206,0,4-1.794,4-4s-1.794-4-4-4s-4,1.794-4,4S21.794,38,24,38z M24,32c1.103,0,2,0.897,2,2s-0.897,2-2,2   s-2-0.897-2-2S22.897,32,24,32z"/><path d="M104,38c2.206,0,4-1.794,4-4s-1.794-4-4-4s-4,1.794-4,4S101.794,38,104,38z M104,32c1.103,0,2,0.897,2,2s-0.897,2-2,2   s-2-0.897-2-2S102.897,32,104,32z"/><path d="M124.939,42.98c-1.293-1.279-3.021-1.981-4.864-1.981c-0.025,0-0.051,0-0.075,0h-5.674L115,34c0-18.196-14.804-33-33-33H46   C27.804,1,13,15.804,13.005,34.096L13.673,41H8c-3.925,0-7,3.075-7,7c0,0.042,0.003,0.083,0.008,0.124l5.006,40.041   C7.145,94.949,11.252,99,17,99h1v2c0,1.654,1.346,3,3,3h2.601l-3.583,18.813c-0.007,0.037-0.012,0.074-0.015,0.111   c-0.016,0.208-0.123,2.066,0.943,3.217C21.467,126.703,22.177,127,23,127c1.318,0,2.955-0.297,3.953-2.697L33.413,104h8.617   l-3.012,15.813c-0.007,0.037-0.012,0.074-0.015,0.111c-0.016,0.208-0.123,2.066,0.943,3.217C40.467,123.703,41.177,124,42,124   c1.318,0,2.955-0.297,3.953-2.697L51.459,104h25.076l5.535,17.385c0.968,2.317,2.604,2.615,3.923,2.615   c0.823,0,1.533-0.297,2.054-0.859c1.066-1.15,0.959-3.009,0.943-3.217c-0.003-0.038-0.008-0.075-0.015-0.111L85.963,104h8.617   l6.49,20.385c0.968,2.317,2.604,2.615,3.923,2.615c0.823,0,1.533-0.297,2.054-0.859c1.066-1.15,0.959-3.009,0.943-3.217   c-0.003-0.038-0.008-0.075-0.015-0.111L104.392,104H107c1.654,0,3-1.346,3-3v-2h1c5.748,0,9.855-4.051,10.992-10.876l5-40   C126.997,48.083,127,48.042,127,48C127,46.079,126.268,44.296,124.939,42.98z M15,34C15,16.907,28.906,3,46,3h36   c17.094,0,31,13.907,31.005,30.904L112.318,41H112c-4.681,0-6.184,3.611-6.988,6.85l-2.453,16.188   C100.583,62.161,97.919,61,94.984,61H33.016c-2.935,0-5.599,1.161-7.575,3.038L22.97,47.757C22.184,44.611,20.681,41,16,41h-0.318   L15,34z M24,72.016c0-1.869,0.572-3.607,1.551-5.049c0.019-0.023,0.036-0.045,0.052-0.07C27.231,64.546,29.945,63,33.016,63h61.969   c3.071,0,5.784,1.546,7.413,3.897c0.016,0.025,0.033,0.047,0.052,0.07c0.978,1.442,1.551,3.18,1.551,5.049V80c0,2.206-1.794,4-4,4   H28c-2.206,0-4-1.794-4-4V72.016z M25.077,123.615C24.54,124.901,23.878,125,23,125c-0.34,0-0.491-0.116-0.585-0.216   c-0.387-0.414-0.435-1.315-0.42-1.661L25.637,104h5.677L25.077,123.615z M44.077,120.615C43.54,121.901,42.878,122,42,122   c-0.34,0-0.491-0.116-0.585-0.216c-0.387-0.414-0.435-1.316-0.42-1.661L44.066,104h5.294L44.077,120.615z M86.999,120.125   c0.019,0.394-0.058,1.268-0.418,1.657c-0.095,0.102-0.247,0.218-0.588,0.218c-0.878,0-1.54-0.099-2.047-1.303L78.634,104h5.293   L86.999,120.125z M105.999,123.125c0.019,0.394-0.058,1.268-0.419,1.657c-0.094,0.102-0.246,0.218-0.587,0.218   c-0.878,0-1.54-0.099-2.047-1.303L96.679,104h5.677L105.999,123.125z M108,101c0,0.551-0.448,1-1,1H21c-0.552,0-1-0.449-1-1v-2h88   V101z M120.014,87.835C119.043,93.66,115.758,97,111,97H17c-4.758,0-8.043-3.34-9.008-9.124L3,47.94C3.031,45.165,5.216,43,8,43h8   c2.711,0,4.074,1.421,5.012,5.15l2.721,17.959C22.641,67.818,22,69.841,22,72.016V80c0,3.309,2.691,6,6,6h72c3.309,0,6-2.691,6-6   v-7.984c0-2.174-0.641-4.198-1.733-5.907l2.703-17.866C107.926,44.421,109.289,43,112,43h8.011c1.367,0,2.595,0.484,3.521,1.402   c0.933,0.924,1.453,2.178,1.468,3.539L120.014,87.835z"/></g></svg>