<svg xmlns="http://www.w3.org/2000/svg" viewBox="0 0 64 80" x="0px" y="0px"><g fill="#df7861"><path d="M54.036,22.234,60.853,5.945a2.839,2.839,0,0,0-3.4-3.834A.987.987,0,0,0,57,2H49.59a5.027,5.027,0,0,0-4.563,2.951L39.622,17H3a1,1,0,0,0-1,1v4a1,1,0,0,0,1,1H9.774L8.133,31H6a4,4,0,0,0-4,4V46a1,1,0,0,0,1,1H4.851L2.021,60.8A1,1,0,0,0,3,62H7a1,1,0,0,0,.979-.8L10.893,47H43a1,1,0,0,0,.922-.614L49.985,31.9l6.036,29.3A1,1,0,0,0,57,62h4a1,1,0,0,0,.979-1.2Zm4.9-17.859a.839.839,0,0,1,.075.8L53.321,18.763l-.2-.965a.992.992,0,0,0-.9-.785l5.236-12.5A.876.876,0,0,1,58.933,4.375ZM46.85,5.774A3.021,3.021,0,0,1,49.59,4H55.5L50.055,17h-8.24ZM4,35a2,2,0,0,1,2-2H7.723L6.082,41H4ZM4,45V43H5.672l-.411,2ZM6.184,60H4.226l7.59-37h1.958ZM36.935,23l-1.959,4.365a4,4,0,0,0,.2,3.635h-21l1.641-8Zm3.07,18H12.123l1.641-8h29.6ZM44.2,31H38.63A2.007,2.007,0,0,1,36.8,28.18L39.127,23H47.55ZM42.334,45H11.3l.41-2H40.67a1,1,0,0,0,.922-.614l7.077-16.873.6,2.913ZM57.815,60,49.946,21.8a1,1,0,0,0-.979-.8H4V19H51.328l8.445,41Z"/></g></svg>