<svg xmlns="http://www.w3.org/2000/svg" xmlns:xlink="http://www.w3.org/1999/xlink" version="1.1" x="0px" y="0px" viewBox="0 0 491.52 614.4" style="enable-background:new 0 0 491.52 491.52;" xml:space="preserve"><g fill="#fc58ae"><path d="M385.6,208.347H105.92c-2.121,0-3.84-1.719-3.84-3.84v-29.803c0-2.121,1.719-3.84,3.84-3.84H385.6   c2.121,0,3.84,1.719,3.84,3.84v29.803C389.439,206.628,387.721,208.347,385.6,208.347z M109.76,200.667h272v-22.124h-272V200.667z"/><path d="M220.253,385.145h-37.226c-1.177,0-2.289-0.539-3.017-1.464c-0.728-0.924-0.992-2.132-0.716-3.275   c5.685-23.594,6.792-96.918,3.918-141.897c-0.135-2.116,1.471-3.941,3.587-4.077c2.111-0.128,3.941,1.471,4.077,3.587   c2.796,43.773,1.935,111.202-3.136,139.446h27.8c-5.575-31.129-6.064-110.376-2.127-152.457c0.197-2.112,2.067-3.66,4.181-3.466   c2.112,0.197,3.664,2.069,3.466,4.181c-4.017,42.939-3.29,128.882,2.926,154.682c0.276,1.144,0.012,2.352-0.716,3.275   C222.542,384.606,221.43,385.145,220.253,385.145z"/><path d="M308.492,385.145h-37.227c-1.177,0-2.288-0.539-3.017-1.464s-0.992-2.132-0.717-3.275   c6.217-25.8,6.943-111.744,2.927-154.682c-0.197-2.112,1.354-3.983,3.466-4.181c2.095-0.195,3.982,1.354,4.181,3.465   c3.937,42.081,3.448,121.327-2.127,152.457h27.8c-5.071-28.243-5.933-95.672-3.136-139.446c0.136-2.117,1.973-3.721,4.077-3.587   c2.116,0.135,3.723,1.96,3.587,4.077c-2.874,44.98-1.767,118.304,3.919,141.897c0.275,1.144,0.012,2.351-0.717,3.275   S309.669,385.145,308.492,385.145z"/><g><g><path d="M141.397,158.024c-3.799,0-7.599-1.147-10.987-3.443c-11.122-7.533-15.05-24.425-10.51-45.187     c0.386-1.763,1.947-3.02,3.751-3.02h35.489c1.805,0,3.366,1.256,3.751,3.02c4.541,20.761,0.612,37.653-10.509,45.187     C148.996,156.876,145.196,158.024,141.397,158.024z M126.801,114.055c-3.393,18.862,1.735,29.981,7.916,34.168     c4.183,2.832,9.177,2.833,13.36,0c6.181-4.187,11.308-15.306,7.916-34.167H126.801z"/><path d="M141.066,178.544c-2.121,0-3.84-1.719-3.84-3.84V154.19c0-2.121,1.719-3.84,3.84-3.84s3.84,1.719,3.84,3.84v20.514     C144.906,176.825,143.187,178.544,141.066,178.544z"/></g><g><path d="M350.123,158.024c-3.8,0-7.599-1.147-10.987-3.443c-11.121-7.533-15.05-24.425-10.509-45.187     c0.385-1.763,1.946-3.02,3.751-3.02h35.489c1.805,0,3.365,1.256,3.751,3.02c4.541,20.761,0.612,37.653-10.508,45.187     C357.722,156.876,353.922,158.024,350.123,158.024z M335.526,114.055c-3.392,18.862,1.735,29.981,7.917,34.168     c4.182,2.832,9.176,2.833,13.359,0c6.182-4.187,11.309-15.306,7.916-34.167H335.526z"/><path d="M349.793,178.544c-2.121,0-3.84-1.719-3.84-3.84V154.19c0-2.121,1.719-3.84,3.84-3.84s3.84,1.719,3.84,3.84v20.514     C353.633,176.825,351.914,178.544,349.793,178.544z"/></g></g><path d="M276.724,311.869c-0.2,0-0.4-0.016-0.602-0.047c-17.024-2.698-43.7-2.699-60.726,0c-1.101,0.172-2.222-0.138-3.074-0.855   c-0.852-0.717-1.351-1.77-1.366-2.883c-0.143-10.071-0.143-20.283,0-30.354c0.016-1.113,0.514-2.166,1.366-2.883   c0.852-0.718,1.974-1.027,3.074-0.855c17.026,2.7,43.699,2.699,60.726-0.001c1.101-0.171,2.222,0.138,3.074,0.855   c0.853,0.717,1.351,1.769,1.367,2.883c0.144,10.071,0.144,20.285,0,30.355c-0.017,1.113-0.515,2.166-1.367,2.883   C278.499,311.553,277.622,311.869,276.724,311.869z M245.759,302.097c9.517,0,19.033,0.507,27.178,1.521   c0.071-7.124,0.071-14.301,0-21.426c-16.291,2.029-38.064,2.03-54.355,0.001c-0.071,7.125-0.071,14.3,0,21.425   C226.727,302.604,236.243,302.097,245.759,302.097z"/><g><g><path d="M153.087,385.146c-3.608,0-7.104-1.16-10.041-3.365c-3.585-2.691-5.908-6.619-6.54-11.058l-8.071-55.746H68.354     l-8.073,55.755c-0.63,4.43-2.952,8.356-6.538,11.049c-3.584,2.691-8.002,3.826-12.442,3.194     c-4.438-0.631-8.365-2.953-11.057-6.538c-2.692-3.585-3.827-8.004-3.195-12.442l9.896-68.347l-9.317-119.783     c-0.334-4.485,1.094-8.82,4.022-12.219c2.927-3.398,7.002-5.454,11.475-5.787c9.239-0.695,17.299,6.258,17.993,15.486     l8.246,106.019h73.597c8.628,0,15.956,6.696,16.736,15.268l10.042,69.354c0.633,4.447-0.501,8.866-3.194,12.451     c-2.692,3.585-6.619,5.907-11.058,6.538C154.685,385.089,153.883,385.146,153.087,385.146z M65.03,307.297h66.729     c1.908,0,3.527,1.401,3.8,3.29l8.549,59.045c0.344,2.417,1.604,4.547,3.548,6.007s4.342,2.077,6.749,1.732     c2.409-0.342,4.539-1.602,5.999-3.546c1.46-1.944,2.076-4.342,1.733-6.749l-10.056-69.452c-0.011-0.076-0.02-0.153-0.026-0.23     c-0.391-4.683-4.386-8.351-9.094-8.351h-77.15c-2.005,0-3.673-1.543-3.829-3.542L53.461,175.94c0-0.004,0-0.008,0-0.013     c-0.374-5.011-4.744-8.789-9.764-8.41c-2.427,0.181-4.639,1.296-6.227,3.14s-2.364,4.197-2.183,6.624l9.349,120.197     c0.022,0.283,0.012,0.567-0.028,0.848l-9.956,68.76c-0.341,2.398,0.274,4.796,1.734,6.74c1.46,1.944,3.59,3.204,5.998,3.546     c2.41,0.347,4.805-0.272,6.75-1.732c1.944-1.46,3.204-3.59,3.546-5.998l8.551-59.054     C61.503,308.699,63.122,307.297,65.03,307.297z"/><path d="M142.961,289.043c-2.121,0-3.84-1.719-3.84-3.84v-11.802c0-4.389-3.571-7.96-7.96-7.96H63.976     c-2.121,0-3.84-1.719-3.84-3.84s1.719-3.84,3.84-3.84h67.185c8.624,0,15.64,7.016,15.64,15.64v11.802     C146.801,287.325,145.082,289.043,142.961,289.043z"/></g><g><path d="M447.817,385.146c-3.607,0-7.104-1.16-10.041-3.365c-3.585-2.692-5.907-6.619-6.539-11.058l-8.071-55.746h-60.081     l-8.072,55.755c-0.631,4.43-2.953,8.356-6.538,11.049c-3.587,2.692-8.006,3.824-12.442,3.194     c-4.438-0.631-8.365-2.953-11.058-6.538s-3.827-8.004-3.195-12.442l10.044-69.363c0.78-8.571,8.107-15.268,16.736-15.268h73.597     l8.245-106.009c0.689-9.232,8.743-16.182,17.993-15.496c9.233,0.688,16.186,8.76,15.498,17.994l-9.318,119.796l9.896,68.338     c0.632,4.447-0.502,8.866-3.194,12.451s-6.619,5.907-11.058,6.538C449.416,385.089,448.614,385.146,447.817,385.146z      M359.761,307.297h66.729c1.908,0,3.527,1.401,3.801,3.29l8.549,59.045c0.344,2.417,1.603,4.547,3.548,6.007     c1.945,1.461,4.345,2.08,6.749,1.732c2.407-0.342,4.537-1.602,5.997-3.546c1.461-1.944,2.076-4.342,1.733-6.749l-9.955-68.751     c-0.04-0.28-0.05-0.564-0.027-0.848l9.351-120.209c0.372-4.998-3.401-9.378-8.411-9.752c-5.004-0.357-9.391,3.399-9.765,8.411     c0,0.004,0,0.008-0.001,0.013l-8.521,109.561c-0.155,1.999-1.823,3.542-3.828,3.542H348.56c-4.708,0-8.703,3.668-9.095,8.351     c-0.006,0.077-0.015,0.154-0.025,0.23l-10.058,69.461c-0.342,2.398,0.273,4.796,1.734,6.74c1.46,1.944,3.59,3.204,5.997,3.546     c2.405,0.347,4.805-0.271,6.75-1.732c1.945-1.46,3.204-3.59,3.547-5.998l8.55-59.054     C356.233,308.699,357.853,307.297,359.761,307.297z M434.23,175.642h0.01H434.23z"/><path d="M348.56,289.043c-2.121,0-3.84-1.719-3.84-3.84v-11.802c0-8.624,7.016-15.64,15.64-15.64h67.186     c2.121,0,3.84,1.719,3.84,3.84s-1.719,3.84-3.84,3.84h-67.186c-4.389,0-7.96,3.571-7.96,7.96v11.802     C352.399,287.325,350.681,289.043,348.56,289.043z"/></g></g><path d="M228.218,178.544h-21.616c-2.121,0-3.84-1.719-3.84-3.84v-58.958c0-4.938,4.018-8.957,8.957-8.957h11.383   c4.938,0,8.956,4.018,8.956,8.957v58.958C232.058,176.825,230.338,178.544,228.218,178.544z M210.441,170.864h13.937v-55.119   c0-0.692-0.584-1.277-1.276-1.277h-11.383c-0.692,0-1.277,0.585-1.277,1.277V170.864z"/><path d="M284.918,178.544h-21.616c-2.121,0-3.84-1.719-3.84-3.84v-58.958c0-4.938,4.018-8.957,8.956-8.957h11.384   c4.938,0,8.956,4.018,8.956,8.957v58.958C288.758,176.825,287.039,178.544,284.918,178.544z M267.142,170.864h13.937v-55.119   c0-0.692-0.585-1.277-1.276-1.277h-11.384c-0.691,0-1.276,0.585-1.276,1.277V170.864z"/><path d="M357.632,242.473c-5.889,0-11.137-3.739-16.212-7.354c-4.092-2.915-8.322-5.93-11.756-5.93s-7.665,3.015-11.756,5.93   c-5.075,3.616-10.323,7.354-16.213,7.354c-5.889,0-11.137-3.739-16.212-7.354c-4.092-2.915-8.322-5.93-11.756-5.93   s-7.664,3.015-11.756,5.93c-5.075,3.616-10.323,7.354-16.212,7.354c-5.889,0-11.137-3.739-16.212-7.354   c-4.091-2.915-8.322-5.93-11.756-5.93c-3.433,0-7.664,3.015-11.755,5.93c-5.075,3.616-10.323,7.354-16.212,7.354   s-11.137-3.739-16.212-7.354c-4.091-2.915-8.322-5.93-11.755-5.93c-3.434,0-7.665,3.015-11.756,5.93   c-5.075,3.616-10.323,7.354-16.212,7.354s-11.137-3.739-16.212-7.354c-4.091-2.915-8.322-5.93-11.756-5.93   c-2.121,0-3.84-1.719-3.84-3.84v-20.842c0-2.121,1.719-3.84,3.84-3.84H385.6c2.121,0,3.84,1.719,3.84,3.84v20.842   c0,2.121-1.719,3.84-3.84,3.84c-3.434,0-7.664,3.015-11.756,5.93C368.769,238.734,363.521,242.473,357.632,242.473z    M329.664,221.509c5.889,0,11.137,3.739,16.212,7.354c4.092,2.915,8.322,5.93,11.756,5.93s7.664-3.015,11.756-5.93   c3.946-2.812,7.997-5.697,12.372-6.842v-13.674h-272v13.674c4.376,1.145,8.426,4.031,12.373,6.842   c4.091,2.915,8.322,5.93,11.756,5.93c3.433,0,7.664-3.015,11.755-5.93c5.075-3.616,10.323-7.354,16.212-7.354   c5.889,0,11.137,3.739,16.212,7.354c4.091,2.915,8.322,5.93,11.756,5.93s7.665-3.015,11.756-5.93   c5.075-3.616,10.323-7.354,16.212-7.354s11.137,3.739,16.212,7.354c4.091,2.915,8.322,5.93,11.756,5.93s7.664-3.015,11.756-5.93   c5.075-3.616,10.323-7.354,16.212-7.354s11.137,3.739,16.212,7.354c4.092,2.915,8.322,5.93,11.756,5.93s7.665-3.015,11.756-5.93   C318.526,225.248,323.774,221.509,329.664,221.509z"/></g></svg>