<svg xmlns="http://www.w3.org/2000/svg" version="1.1" viewBox="-5.0 -10.0 110.0 135.0">
 <g fill="#37ccc5">
  <path d="m66.191 31.43c-1.5078-6.3008-6.8047-11.293-13.176-12.418-5.5391-0.97266-10.973 0.73438-14.879 4.6914s-5.5469 9.4023-4.5 14.945c1.2539 6.6406 6.5625 11.922 13.211 13.145 1.0703 0.19922 2.1367 0.29688 3.1914 0.29688 3.6836 0 7.207-1.1953 10.152-3.4883 0.91016-0.70703 1.0742-2.0156 0.36328-2.9219-0.69922-0.90625-2.0117-1.0781-2.9219-0.36328-2.8359 2.207-6.3945 3.0469-10.027 2.3828-4.9688-0.91406-8.9336-4.8594-9.8711-9.8203-0.78906-4.1758 0.44141-8.2773 3.3711-11.242 2.9297-2.9688 7.0078-4.2422 11.191-3.5156 4.7617 0.83984 8.7227 4.5703 9.8477 9.2812 0.32812 1.3672 0.42969 2.7539 0.30859 4.1133-0.11328 1.3047-1.1719 2.2891-2.4531 2.2891-1.3477 0-2.4453-1.0977-2.4453-2.4453v-5.1055c0-1.1523-0.92969-2.082-2.082-2.082-0.33984 0-0.65234 0.10156-0.93359 0.24609-1.2656-0.95703-2.8242-1.5508-4.5352-1.5508-4.1641 0-7.5508 3.3867-7.5508 7.5508 0 4.1641 3.3867 7.5508 7.5508 7.5508 2.0156 0 3.8398-0.80469 5.1953-2.0977 1.207 1.2852 2.9062 2.0977 4.8008 2.0977 3.4609 0 6.2969-2.6172 6.6055-6.0859 0.16016-1.8086 0.023437-3.6445-0.41016-5.4492zm-16.191 7.3711c-1.8672 0-3.3867-1.5195-3.3867-3.3867 0-1.8672 1.5195-3.3867 3.3867-3.3867s3.3867 1.5195 3.3867 3.3867c0 1.8672-1.5195 3.3867-3.3867 3.3867z"/>
  <path d="m91.668 45.605c0-0.78906-0.10938-1.5547-0.29688-2.2852l-31.559 21.598 31.086 21.27c0.48828-1.1172 0.76953-2.3477 0.76953-3.6406z"/>
  <path d="m52.367 64.871c-1.4414-0.99219-3.2969-0.98828-4.7344-0.003906l-36.008 24.637c1.5859 1.332 3.6016 2.1641 5.8281 2.1641h65.082c2.2266 0 4.2422-0.83203 5.8281-2.1641l-36.004-24.633z"/>
  <path d="m8.6328 43.32c-0.19531 0.73438-0.30078 1.4961-0.30078 2.2852v36.938c0 1.2969 0.27734 2.5234 0.76953 3.6406l31.086-21.27z"/>
  <path d="m89.402 39.617c-0.72656-0.83984-1.5859-1.5547-2.5977-2.082l-5.5547-2.9297v-17.934c0-4.5977-3.7383-8.332-8.332-8.332l-45.836-0.003906c-4.5977 0-8.332 3.7383-8.332 8.332v17.938l-5.5508 2.9258c-1.0195 0.53125-1.8867 1.25-2.6055 2.082l12.324 8.4297v-31.379c0-2.2969 1.8672-4.168 4.168-4.168h45.832c2.2969 0 4.168 1.8672 4.168 4.168v31.379l12.32-8.4297z"/>
 </g>
 </svg>