<svg xmlns="http://www.w3.org/2000/svg" data-name="Layer 2" viewBox="0 0 100 125" x="0px" y="0px"><g fill="#fc58ae"><path d="m81.63,54.9v-.1c0-.81-.65-1.46-1.46-1.46H16.26c-.81,0-1.46.65-1.46,1.46v.1h1.3v25.05h-1.3v.1c0,.81.65,1.46,1.46,1.46h63.91c.81,0,1.46-.65,1.46-1.46v-.1h-1.3v-25.05h1.3Zm-2.3.36v24.19h-22.66c4.07-2.24,6.87-6.81,6.87-12.1s-2.8-9.85-6.87-12.09h22.66Zm-27.76,13.74c.2.11.42.17.66.17.91,0,1.66-.89,1.66-1.99s-.74-1.98-1.66-1.98c-.23,0-.46.06-.66.17v-10.1h2.54c4.85,1.46,8.42,6.32,8.42,12.09s-3.58,10.63-8.43,12.1h-2.54v-10.45Zm0-1.82c0-.53.3-.98.66-.98s.66.45.66.98-.3.99-.66.99-.66-.45-.66-.99Zm-3.85-11.92h2.85v24.19h-2.85v-24.19Zm-1,0v10.1c-.2-.11-.42-.16-.66-.16-.91,0-1.66.89-1.66,1.98s.74,1.99,1.66,1.99c.23,0,.46-.06.66-.16v10.45h-2.54c-4.85-1.46-8.43-6.33-8.43-12.1s3.58-10.62,8.43-12.09h2.54Zm0,11.92c0,.53-.3.99-.66.99s-.66-.45-.66-.99.3-.98.66-.98.66.45.66.98Zm-29.61-11.92h24.51c-4.07,2.23-6.87,6.81-6.87,12.09s2.8,9.86,6.87,12.1h-24.51v-24.19Z"/><ellipse cx="49.14" cy="67.18" rx=".91" ry="1.29"/><path d="m64.25,56.85v4.61c0,.4.32.72.72.72h11.93c.4,0,.72-.32.72-.72v-4.61c0-.4-.32-.72-.72-.72h-11.93c-.4,0-.72.32-.72.72Zm6.68,4.2c-1.51,0-2.73-.63-2.73-1.41s1.22-1.41,2.73-1.41,2.73.63,2.73,1.41-1.22,1.41-2.73,1.41Z"/><path d="m70.93,60.55c-1.34,0-2.23-.55-2.23-.91s.89-.91,2.23-.91,2.23.55,2.23.91-.89.91-2.23.91Z"/><path d="m64.25,64.87v4.61c0,.4.32.72.72.72h11.93c.4,0,.72-.32.72-.72v-4.61c0-.4-.32-.72-.72-.72h-11.93c-.4,0-.72.32-.72.72Zm6.68,4.2c-1.51,0-2.73-.63-2.73-1.41s1.22-1.41,2.73-1.41,2.73.63,2.73,1.41-1.22,1.41-2.73,1.41Z"/><path d="m70.93,68.57c-1.34,0-2.23-.55-2.23-.91s.89-.91,2.23-.91,2.23.55,2.23.91-.89.91-2.23.91Z"/><path d="m64.25,72.9v4.61c0,.4.32.72.72.72h11.93c.4,0,.72-.32.72-.72v-4.61c0-.4-.32-.72-.72-.72h-11.93c-.4,0-.72.32-.72.72Zm6.68,4.2c-1.51,0-2.73-.63-2.73-1.41s1.22-1.41,2.73-1.41,2.73.63,2.73,1.41-1.22,1.41-2.73,1.41Z"/><path d="m70.93,76.6c-1.34,0-2.23-.55-2.23-.91s.89-.91,2.23-.91,2.23.55,2.23.91-.89.91-2.23.91Z"/><path d="m33.42,62.51h-14.14c-.59,0-1.07-.48-1.07-1.07v-4.68h16.29v4.67c0,.59-.48,1.07-1.07,1.07Zm-14.21-4.75v3.68l14.21.07s.07-.03.07-.07v-3.67h-14.29Z"/><rect x="23.88" y="59.1" width="4.49" height="1.07"/><path d="m30.33,60.59h-8.4v-1.92h8.4v1.92Zm-8.15-.25h7.9v-1.42h-7.9v1.42Z"/><path d="m33.42,70.53h-14.14c-.59,0-1.07-.48-1.07-1.07v-4.68h16.29v4.67c0,.59-.48,1.07-1.07,1.07Zm-14.21-4.75v3.68l14.21.07s.07-.03.07-.07v-3.67h-14.29Z"/><rect x="23.88" y="67.12" width="4.49" height="1.07"/><path d="m30.33,68.62h-8.4v-1.92h8.4v1.92Zm-8.15-.25h7.9v-1.42h-7.9v1.42Z"/><path d="m33.42,78.56h-14.14c-.59,0-1.07-.48-1.07-1.07v-4.68h16.29v4.67c0,.59-.48,1.07-1.07,1.07Zm-14.21-4.75v3.68l14.21.07s.07-.03.07-.07v-3.67h-14.29Z"/><rect x="23.88" y="75.15" width="4.49" height="1.07"/><path d="m30.33,76.64h-8.4v-1.92h8.4v1.92Zm-8.15-.25h7.9v-1.42h-7.9v1.42Z"/><path d="m70.69,81.51H25.77l-.36,11.84h.93l.93-9.08c.04-.36.34-.64.7-.65l1.73-.04s0,0-.85.83c-.85.83-1.43,6.59-1.43,6.59h.76s.27-3.3,1.29-4.98c.9-1.46,2.72-2.16,3.16-2.31.07-.02.13-.03.2-.03l7.03-.11.17-.26c.21,0,.41.05.59.16,1.21.74,6.13,3.72,7.61,3.72s6.4-2.98,7.61-3.72c.18-.11.38-.16.59-.16l.17.26,7.03.11c.07,0,.13.01.2.03.44.15,2.26.84,3.16,2.31,1.02,1.67,1.29,4.98,1.29,4.98h.76s-.58-5.76-1.43-6.59q-.85-.83-.85-.83l1.73.04c.36,0,.67.29.7.65l.93,9.08h.93l-.36-11.84Z"/><path d="m77.19,40.33v-.32c0-.14-.11-.25-.25-.27l-2.69-10.48-.02-.09h-.03v-.35c0-.11-.09-.2-.2-.2h-6.76c-.11,0-.2.09-.2.2v.36h-.03l-2.72,10.57c-.14,0-.25.12-.25.26v.33h5.23v.53s-3.56,1.49-3.56,3.33,2.14,5.7,3.27,6.48v.68s-1.19-.06-1.18.65c.01.7.5.94.5.94h4.66s.49-.23.5-.94c.01-.7-1.17-.65-1.17-.65v-.68c1.12-.77,3.26-4.63,3.26-6.48s-3.56-3.33-3.56-3.33v-.53h5.23Zm-9.99-10.91h6.83l2.6,10.11h-12.02l2.6-10.11Z"/><path d="m59.86,17.3h.01c-.8-1.2-7.89-11.63-11.18-11.63h-.46c-3.29,0-10.37,10.06-11.17,11.21h0c-3.64,3.15-5.96,7.79-5.96,12.96,0,9.45,7.69,17.13,17.13,17.13s17.13-7.69,17.13-17.13c0-4.96-2.13-9.41-5.5-12.54Zm-11.63-10.63h.46c1.7,0,5.61,4.6,8.56,8.64-2.63-1.64-5.71-2.6-9.03-2.6-3.14,0-6.07.86-8.61,2.34,2.96-3.91,6.89-8.38,8.61-8.38Zm0,39.31c-8.9,0-16.13-7.24-16.13-16.13s7.24-16.13,16.13-16.13,16.13,7.24,16.13,16.13-7.24,16.13-16.13,16.13Z"/><circle cx="48.47" cy="7.48" r="1.1"/><path d="m47.03,40.08l1.15-2.32c.03-.07.05-.14.05-.22v-21.53c-.2-.19-.31-.3-.51-.5-.4.02-.8.05-1.2.11-.24.03-.43.24-.43.49v23.75c0,.52.7.68.93.22Z"/><path d="m49.93,34.24l7.43-14.96c.1-.21.05-.46-.13-.61-2.14-1.72-4.79-2.83-7.7-3.09-.29-.03-.54.21-.54.5v17.95c0,.52.7.68.93.22Z"/><path d="m45.33,43.39v-26.97c0-.32-.3-.56-.61-.49-.65.16-1.28.38-1.89.63-.19.08-.31.26-.31.46v25.64c0,.2.12.39.31.46.75.31,1.52.56,2.33.73l.24-.47h-.05Z"/><path d="m41.75,17.89c0-.37-.41-.62-.73-.43-4.26,2.48-7.13,7.09-7.13,12.38s2.87,9.92,7.13,12.41c.32.19.73-.06.73-.43v-23.92Z"/></g></svg>