<svg xmlns="http://www.w3.org/2000/svg" viewBox="0 0 64 80" x="0px" y="0px"><title>w_30</title><g fill="#df7861" data-name="Layer 4"><path d="M34,43a3,3,0,0,0,3-3V39h6.84A3.163,3.163,0,0,0,47,35.84V33a1,1,0,0,0-1-1H18a1,1,0,0,0-1,1v2.84A3.163,3.163,0,0,0,20.16,39H27v1a3,3,0,0,0,3,3h1V56H28a3,3,0,0,0-3,3v2a1,1,0,0,0,1,1H38a1,1,0,0,0,1-1V59a3,3,0,0,0-3-3H33V43Zm3,16v1H27V59a1,1,0,0,1,1-1h8A1,1,0,0,1,37,59ZM19,35.84V34H45v1.84A1.162,1.162,0,0,1,43.84,37H20.16A1.162,1.162,0,0,1,19,35.84ZM29,40V39h6v1a1,1,0,0,1-1,1H30A1,1,0,0,1,29,40Z"/><path d="M15,42H8V29a3,3,0,0,0-3-3H3a1,1,0,0,0-1,1V61a1,1,0,0,0,2,0V48H16V61a1,1,0,0,0,2,0V45A3,3,0,0,0,15,42ZM4,28H5a1,1,0,0,1,1,1V42H4ZM4,44H15a1,1,0,0,1,1,1v1H4Z"/><path d="M61,26H59a3,3,0,0,0-3,3V42H49a3,3,0,0,0-3,3V61a1,1,0,0,0,2,0V48H60V61a1,1,0,0,0,2,0V27A1,1,0,0,0,61,26Zm-3,3a1,1,0,0,1,1-1h1V42H58ZM48,45a1,1,0,0,1,1-1H60v2H48Z"/></g></svg>