<svg xmlns="http://www.w3.org/2000/svg" xmlns:xlink="http://www.w3.org/1999/xlink" version="1.1" x="0px" y="0px" viewBox="0 0 100 125" style="enable-background:new 0 0 100 100;" xml:space="preserve"><path fill="#df7861" d="M78.7,86.1l-13-7.5c-1.4-0.8-3-1.2-4.6-1.1l-26.7,1.7c0.1-6.5,0.2-14.9,0.2-19.8c0-2.6,0.6-4.5,1.9-5.7  c1.4-1.3,3.2-1.2,3.3-1.2h0.1l30.3-1.7c0.2,0,2.2-0.1,5-0.5c5.3-0.7,5.4-7.6,5.4-8.1s0.1-8.2,0-10.3c-0.1-1.4,1.9-9,3.4-14.1  l-2.4-0.7l1-4c0,0,1.3-4.7-3.2-4.7c-4.6,0-11.4-1.8-14.9-3.2c-2.4-1-3.3,1.3-3.8,3.9l-3.3,15.3c0,0-1.3,4.5,1.5,6.3  c0.2,5.8-1.1,7.6-1.7,8.2C57,39,57,39,56.9,39h-0.1C51.3,37.2,21,39.1,21,39.1c-3.1,0.2-2.1,2.6-1.4,3.2c0.3,0.2,0.6,0.5,1.1,0.6  c-4.6,2.1-4.8,6.9-4.8,6.9v25.5c0,2.2,0.6,4,2,5.3c2.2,2,5.3,1.9,5.5,1.9l8.2-0.6c0,3.4-0.1,5.9-0.1,6.2c0,0.5-0.1,2.7,1.6,4.5  c1.4,1.5,3.4,2.2,6,2.2h0.1h0.1c0.3,0,28.9-2.5,38.3-3.2c1.7-0.1,2.8-0.9,3.1-2.1C81,88.4,80.3,87,78.7,86.1z M61.4,32  c1,0.4,2.5,0.8,4.6,1.6C71.4,35.2,76,38,77.4,34l0.5-1.9c0,0,0,0,0,0.1c0.1,2.1,0,10.1,0,10.2c0,0.1,0,5-3.1,5.5  c-2.7,0.4-4.7,0.5-4.7,0.5h-0.3v-3.4c0-1.5-5.3-3.2-10.2-4.8C60.8,38.2,61.3,35.6,61.4,32z M31.8,59.4c0,4.9-0.1,13.5-0.2,20  l-8.4,0.6c0,0-2.1,0.1-3.4-1.2c-0.7-0.7-1.2-1.9-1.2-3.2V49.9c0-0.2,0.2-4.4,5.6-5.1c4.2,2,9.9,4.5,12.7,5.6  c-0.7,0.3-1.6,0.7-2.3,1.4C32.8,53.4,31.9,55.9,31.8,59.4z M77.4,89.1c-9.3,0.6-36.8,3.1-38.3,3.2c-1.9,0-3.2-0.5-4-1.3  c-1-1.1-0.9-2.5-0.9-2.5v-0.1c0-0.1,0-2.7,0.1-6.5l26.9-1.7c1.1-0.1,2.1,0.2,3.1,0.7l13,7.5c0.4,0.3,0.6,0.5,0.7,0.6  C77.8,89.1,77.7,89.1,77.4,89.1z"/></svg>