<svg xmlns="http://www.w3.org/2000/svg" xmlns:xlink="http://www.w3.org/1999/xlink" version="1.1" x="0px" y="0px" viewBox="0 0 64 80" style="enable-background:new 0 0 64 64;" xml:space="preserve"><style type="text/css">
	.st0{fill:#070707;}
	.st1{fill:#231F20;}
</style><path fill="#fc85ae" d="M34,51c9.8,0,20-6.7,20-18c0-2.9-1.8-6-5-6c-2.9,0-4.9,1.1-6.5,2c-1.7,1-2.8,1.5-4.1,1c-1-0.3-1.6-0.8-1.9-1.6  c-1-2.4,1.1-7,3-11.1c2.3-4.9,4.4-9.4,2.3-12C39.8,3,35.4,4.3,30.3,5.8c-4.8,1.4-10.2,3-13.5,1.5c-0.3-0.9-0.6-1.6-1.2-2.1  C14.9,4.4,14,4,13,4c-0.4,0-0.9,0.1-1.3,0.7C9.5,7.6,9.4,23.1,12,32.3c3.2,11.1,9.8,17.4,19,18.5v3.7L25.2,53  c-0.5-0.1-1.1,0.2-1.2,0.7c-0.1,0.5,0.2,1.1,0.7,1.2l3.3,0.8L22.8,57c-0.5,0.1-0.9,0.7-0.7,1.2c0.1,0.5,0.5,0.8,1,0.8  c0.1,0,0.2,0,0.2,0l9-2.1l8.5,2.1c0.1,0,0.2,0,0.2,0c0.4,0,0.9-0.3,1-0.8c0.1-0.5-0.2-1.1-0.7-1.2l-4.7-1.2l3.7-0.9  c0.5-0.1,0.9-0.7,0.7-1.2c-0.1-0.5-0.7-0.9-1.2-0.7L33,54.6V51C33.3,51,33.7,51,34,51z M17,19.7c0.3-3.7,0.5-7.3,0.2-10.1  c3.9,1,9-0.5,13.6-1.8c4.1-1.2,8.3-2.4,9.4-1.1c1.3,1.6-0.8,6-2.6,9.9c-2.2,4.7-4.4,9.5-3,12.8c0.5,1.3,1.6,2.2,3.1,2.7  c2.3,0.8,4.1-0.2,5.8-1.2C45,29.9,46.6,29,49,29c2.2,0,3,2.5,3,4c0,1.2-0.2,2.3-0.4,3.5c-3.1-1.7-8.7-2.2-16.7-1.3c0,0,0,0,0,0  c-0.3-0.4-0.6-0.8-0.9-1.2c-2.2-2.9-4.5-6-8-6c-1.9,0-3.1,0.8-4.2,1.6C20.7,30.3,19.7,31,18,31c-0.2,0-0.4-0.1-0.5-0.2  C16.3,29.5,16.6,24.3,17,19.7z M50.2,38.1C48.9,38.9,46.3,40,42,40c-2.3,0-4-1.2-5.6-3C42.9,36.5,47.7,36.8,50.2,38.1z M14,31.7  c-2.8-9.6-2-23.8-0.7-25.7c0.4,0,0.7,0.2,0.9,0.5c1.7,1.8,1.2,7.8,0.8,13.1c-0.4,5.7-0.8,10.7,1,12.6c0.5,0.6,1.2,0.9,2,0.9  c2.3,0,3.7-0.9,4.9-1.8c1-0.7,1.8-1.2,3.1-1.2c2.5,0,4.4,2.5,6.4,5.2c2.4,3.2,5.1,6.8,9.6,6.8c3.7,0,6.3-0.8,8-1.6  c-2.7,4.8-8.1,8.6-16,8.6C24.1,49,17.3,43.2,14,31.7z"/></svg>