<svg xmlns="http://www.w3.org/2000/svg" viewBox="0 0 512 640" x="0px" y="0px"><g fill="#fc85ae"><path d="M456,32a24.02687,24.02687,0,0,1,24,24V416H336V232a24.02687,24.02687,0,0,1,24-24h80a7.99977,7.99977,0,0,0,8-8V56a39.7957,39.7957,0,0,0-8.019-24ZM192,56a24.0275,24.0275,0,0,1,24-24H408a24.02687,24.02687,0,0,1,24,24V192H312a40.04521,40.04521,0,0,0-40,40v25.37622A23.88362,23.88362,0,0,0,264,256H192Zm80,264H80V280a8.00917,8.00917,0,0,1,8-8H264a8.00917,8.00917,0,0,1,8,8ZM80,336H272v80H80Zm24-128h72v48H88a23.88362,23.88362,0,0,0-8,1.37622V232A24.02687,24.02687,0,0,1,104,208ZM32,232a24.02687,24.02687,0,0,1,24-24H72.019A39.79888,39.79888,0,0,0,64,232V416H32ZM46.93848,472l-5.71454-40H70.77606l-5.71454,40ZM288,232a24.02687,24.02687,0,0,1,24-24h16.02185A39.79044,39.79044,0,0,0,320,232V416H288Zm81.06152,240h-18.123l-5.71454-40h29.55212Zm85.877,0-5.71454-40h29.55212l-5.71454,40Z"/></g></svg>