<svg xmlns="http://www.w3.org/2000/svg" xmlns:xlink="http://www.w3.org/1999/xlink" version="1.1" x="0px" y="0px" viewBox="0 0 64 80" style="enable-background:new 0 0 64 64;" xml:space="preserve"><g><g><g fill="#fc85ae"><path d="M46.9,25.1c-0.1,0.9,1.5,1.9,2.4,2c0.9,0.1,0.6-0.7,0.7-1.5c0.1-0.9,0.6-1.6-0.3-1.7C48.9,23.7,47.1,24.2,46.9,25.1z"/></g><g fill="#fc85ae"><path d="M42.1,26c0.9,0.1,2.7-0.4,2.8-1.3c0.1-0.9-1.5-1.9-2.4-2c-0.9-0.1-0.6,0.7-0.7,1.5C41.7,25.2,41.2,25.9,42.1,26z"/></g><g fill="#fc85ae"><path d="M45.3,29c0.9,0.1,1.6,0.6,1.7-0.3c0.1-0.9-0.4-2.7-1.3-2.8c-0.9-0.1-1.9,1.5-2,2.4C43.7,29.2,44.4,28.9,45.3,29z"/></g><g fill="#fc85ae"><path d="M46.1,23.9c0.9,0.1,1.9-1.5,2-2.4c0.1-0.9-0.7-0.6-1.5-0.7c-0.9-0.1-1.6-0.6-1.7,0.3C44.7,21.9,45.2,23.7,46.1,23.9z"/></g><g fill="#fc85ae"><path d="M63.6,49.6C63,48.8,62,48.3,61,48.4c-1.2,0.1-2.4,0.9-3.3,2.4c0.6-2.8,1-5.4,1-6.6c0-1.2-0.4-2.4-1-3.3     c-0.4-0.7-1.2-1-2-1h-0.1v-1.1h0.1c0.3,0,0.6-0.3,0.6-0.6c0-0.3-0.3-0.6-0.6-0.6h-1.2c0.7-3.2,1.7-6,2.7-8.2     c0.7-0.3,1.2-0.9,1.5-1.5c0.3,0.8,0.9,1.4,1.7,1.7l0,0l0,0c0.4-0.8,0.4-1.7,0.1-2.4c0.7,0.3,1.6,0.4,2.4,0l0,0l0,0     c-0.3-0.8-0.9-1.4-1.7-1.8c0.8-0.3,1.4-0.9,1.7-1.7l0,0l0,0c-0.8-0.4-1.7-0.4-2.4-0.1c0.3-0.7,0.4-1.6,0-2.4l0,0l0,0     c-0.8,0.3-1.4,0.9-1.8,1.7c-0.3-0.8-0.9-1.4-1.7-1.7c-0.4,0.8-0.4,1.7-0.1,2.4c-0.7-0.3-1.6-0.4-2.4,0c0.3,0.8,0.9,1.4,1.7,1.8     c-0.8,0.3-1.4,0.9-1.7,1.7c0.8,0.4,1.7,0.4,2.4,0.1c-0.2,0.4-0.3,0.9-0.2,1.4c-1.1,2.3-2.3,5.4-3,9H53V21.1     c0.5-0.2,0.8-0.6,0.9-1.1c0.5,0.4,1.3,0.3,1.7-0.1c0.5-0.5,0.5-1.2,0.1-1.7c0.6-0.1,1.1-0.7,1.1-1.3c0-0.7-0.5-1.2-1.1-1.3     c0.4-0.5,0.3-1.3-0.1-1.7c-0.5-0.5-1.2-0.5-1.7-0.1c-0.1-0.6-0.6-1.1-1.3-1.1c-0.7,0-1.2,0.5-1.3,1.1c-0.5-0.4-1.3-0.3-1.7,0.1     C49,14.2,49,15,49.4,15.5c-0.6,0.1-1.1,0.6-1.1,1.3c0,0.7,0.5,1.2,1.1,1.3c-0.4,0.5-0.3,1.3,0.1,1.7c0.5,0.5,1.2,0.5,1.7,0.1     c0.1,0.5,0.4,0.9,0.9,1.1v16.5h-0.6c-1.2-5.8-3.6-10.4-4.7-12.3c0.1-0.3,0.1-0.7-0.1-0.9c-0.3-0.4-0.9-0.5-1.4-0.2     c-0.4,0.3-0.5,0.9-0.2,1.4c0.2,0.3,0.6,0.4,1,0.4c1.1,1.8,3.3,6.2,4.5,11.7h-1c-0.3,0-0.6,0.3-0.6,0.6c0,0.3,0.3,0.6,0.6,0.6h0.1     v1.1c0,0,0,0,0,0c-0.8,0-1.6,0.4-2.1,1.1c-0.6,0.9-1,2.1-1,3.3c0,1.2,0.4,3.8,1,6.6c-0.9-1.5-2.1-2.4-3.3-2.4     c-1-0.1-2,0.4-2.5,1.2c-0.6,0.8-0.6,2-0.1,2.8c0.3,0.6,0.8,0.9,1.4,1c0.7,0.1,1.4-0.2,1.7-0.8c0.2-0.3,0.2-0.7,0.1-1.1     c-0.1-0.3-0.3-0.6-0.7-0.7c-0.2-0.1-0.5,0-0.6,0.2c-0.1,0.2,0,0.5,0.2,0.6c0.1,0,0.1,0.1,0.2,0.2c0,0.1,0,0.3,0,0.4     c-0.1,0.2-0.5,0.4-0.8,0.3c-0.3-0.1-0.6-0.3-0.8-0.6c-0.3-0.6-0.3-1.4,0.1-1.9c0.4-0.6,1.1-0.9,1.8-0.9c1.3,0.1,2.3,1.4,2.9,2.5     c1,1.8,1.7,3.9,1.9,6c0.1,0.7,0.1,1.7-0.2,2.5c-0.5,1.3-1.9,2.1-3.4,2.9c-0.2,0.1-0.3,0.4-0.2,0.6c0.1,0.2,0.2,0.2,0.4,0.2     c0.1,0,0.1,0,0.2,0c1.6-0.8,3.2-1.7,3.8-3.3c0.3-0.7,0.3-1.5,0.3-2.2c0.7,1.5,1.4,2.5,2.3,2.8v2.2c0,0.3,0.2,0.5,0.5,0.5     c0.3,0,0.5-0.2,0.5-0.5v-2.2c0.8-0.3,1.6-1.4,2.3-2.8c0,0.7,0,1.5,0.3,2.2c0.6,1.6,2.2,2.5,3.8,3.3c0.1,0,0.1,0,0.2,0     c0.2,0,0.3-0.1,0.4-0.2c0.1-0.2,0-0.5-0.2-0.6c-1.5-0.7-2.9-1.5-3.4-2.9c-0.3-0.8-0.3-1.7-0.2-2.5c0.2-2.1,0.9-4.1,1.9-6     c0.6-1.1,1.6-2.4,2.9-2.5c0.7,0,1.4,0.3,1.8,0.9c0.4,0.6,0.4,1.4,0.1,1.9c-0.2,0.3-0.5,0.6-0.8,0.6c-0.3,0.1-0.6-0.1-0.8-0.3     c-0.1-0.1-0.1-0.3,0-0.4c0-0.1,0.1-0.2,0.2-0.2c0.2-0.1,0.3-0.4,0.2-0.6c-0.1-0.2-0.4-0.3-0.6-0.2c-0.3,0.1-0.5,0.4-0.7,0.7     c-0.1,0.4-0.1,0.8,0.1,1.1c0.3,0.6,1,0.9,1.7,0.8c0.6-0.1,1.1-0.5,1.4-1C64.2,51.6,64.1,50.5,63.6,49.6z M52.5,18.5     c-0.9,0-1.7-0.7-1.7-1.7c0-0.9,0.7-1.7,1.7-1.7c0.9,0,1.7,0.7,1.7,1.7C54.2,17.7,53.5,18.5,52.5,18.5z"/></g><g fill="#df7861"><path d="M2.7,42.9h34.7v-40h0l1.4-2.7H1.4l1.4,2.7V42.9z M34.4,40.7H23.1V16.1h11.3V40.7z M5.7,5.8h28.7v8.5H5.7V5.8z M5.7,16.1     H17v24.6H5.7V16.1z"/></g><g fill="#df7861"><rect x="6.7" y="17.1" width="9.3" height="22.6"/></g><g fill="#df7861"><rect x="24.1" y="17.1" width="9.3" height="22.6"/></g><g fill="#df7861"><path d="M21.3,51.1h16.5V47H21.3V51.1z M29.5,47.6c0.3,0,0.5,0.2,0.5,0.5c0,0.3-0.2,0.5-0.5,0.5c-0.3,0-0.5-0.2-0.5-0.5     C29,47.8,29.3,47.6,29.5,47.6z"/></g><g fill="#df7861"><path d="M2,57.8h16.5v-4.1H2V57.8z M10.3,54.2c0.3,0,0.5,0.2,0.5,0.5c0,0.3-0.2,0.5-0.5,0.5s-0.5-0.2-0.5-0.5     C9.8,54.5,10,54.2,10.3,54.2z"/></g><g fill="#df7861"><path d="M0,63.2h1.6v0.6h6.1v-0.6h24.7v0.6h6.1v-0.6h1.6V44.9H0V63.2z M20.6,46.3h17.8v5.5H20.6V46.3z M20.6,53h17.8v5.5H20.6V53     z M1.4,46.3h17.8v5.5H1.4V46.3z M1.4,53h17.8v5.5H1.4V53z"/></g><g fill="#df7861"><path d="M21.3,57.8h16.5v-4.1H21.3V57.8z M29.5,54.2c0.3,0,0.5,0.2,0.5,0.5c0,0.3-0.2,0.5-0.5,0.5c-0.3,0-0.5-0.2-0.5-0.5     C29,54.5,29.3,54.2,29.5,54.2z"/></g><g fill="#df7861"><path d="M2,51.1h16.5V47H2V51.1z M10.3,47.6c0.3,0,0.5,0.2,0.5,0.5c0,0.3-0.2,0.5-0.5,0.5s-0.5-0.2-0.5-0.5     C9.8,47.8,10,47.6,10.3,47.6z"/></g></g></g></svg>