<svg xmlns="http://www.w3.org/2000/svg" xmlns:xlink="http://www.w3.org/1999/xlink" version="1.1" x="0px" y="0px" viewBox="0 0 32 40" style="enable-background:new 0 0 32 32;" xml:space="preserve"><style type="text/css">
	.st0{display:none;}
	.st1{display:inline;}
</style><g fill="#37ccc5aa"><path d="M24.887,8.93c-1.854-0.591-4.274-2.373-3.998-4.553c0.283-2.238,2.595-2.831,3.998-1.328   c1.403-1.503,3.715-0.91,3.998,1.328C29.16,6.558,26.741,8.338,24.887,8.93z"/><path d="M28.06,8.914c-0.876,0.681-1.864,1.173-2.716,1.446l-0.456,0.146l-0.456-0.145c-2.246-0.716-5.439-2.949-5.032-6.171   c0.076-0.602,0.272-1.142,0.545-1.616C18.693,2.206,17.372,2,16.001,2c-7.732,0-14,6.268-14,14s6.268,14,14,14s14-6.268,14-14   C30.001,13.411,29.286,10.994,28.06,8.914z M16.001,8.03c2.362,0,4.285,1.923,4.285,4.285s-1.923,4.285-4.285,4.285   s-4.285-1.923-4.285-4.285S13.639,8.03,16.001,8.03z M21.693,21.987c0,0.001-0.021,0.034-0.021,0.034   c-0.573,0.842-1.433,1.417-2.419,1.619c-1.06,0.218-2.154,0.329-3.251,0.329s-2.19-0.111-3.253-0.329   c-0.985-0.202-1.843-0.776-2.416-1.617c-0.591-0.872-0.65-1.946-0.177-2.841c0.473-0.893,1.395-1.448,2.405-1.448h6.881   c1.012,0,1.934,0.556,2.406,1.449S22.261,21.151,21.693,21.987z"/></g></svg>